<?xml version="1.0" encoding="utf-8" standalone="no"?>
<!DOCTYPE svg PUBLIC "-//W3C//DTD SVG 1.1//EN"
  "http://www.w3.org/Graphics/SVG/1.1/DTD/svg11.dtd">
<svg xmlns:xlink="http://www.w3.org/1999/xlink" width="720pt" height="288pt" viewBox="0 0 720 288" xmlns="http://www.w3.org/2000/svg" version="1.1">
 <metadata>
  <rdf:RDF xmlns:dc="http://purl.org/dc/elements/1.1/" xmlns:cc="http://creativecommons.org/ns#" xmlns:rdf="http://www.w3.org/1999/02/22-rdf-syntax-ns#">
   <cc:Work>
    <dc:type rdf:resource="http://purl.org/dc/dcmitype/StillImage"/>
    <dc:date>2025-10-03T08:42:18.916877</dc:date>
    <dc:format>image/svg+xml</dc:format>
    <dc:creator>
     <cc:Agent>
      <dc:title>Matplotlib v3.5.1, https://matplotlib.org/</dc:title>
     </cc:Agent>
    </dc:creator>
   </cc:Work>
  </rdf:RDF>
 </metadata>
 <defs>
  <style type="text/css">*{stroke-linejoin: round; stroke-linecap: butt}</style>
 </defs>
 <g id="figure_1">
  <g id="patch_1">
   <path d="M 0 288 
L 720 288 
L 720 0 
L 0 0 
z
" style="fill: #ffffff"/>
  </g>
  <g id="axes_1">
   <g id="patch_2">
    <path d="M 90 256.32 
L 648 256.32 
L 648 34.56 
L 90 34.56 
z
" style="fill: #ffffff"/>
   </g>
   <g id="matplotlib.axis_1">
    <g id="xtick_1">
     <g id="line2d_1">
      <path d="M 115.363636 256.32 
L 115.363636 34.56 
" clip-path="url(#p87ae23c55e)" style="fill: none; stroke: #b0b0b0; stroke-width: 1.3; stroke-linecap: square"/>
     </g>
     <g id="line2d_2">
      <defs>
       <path id="mca61bfb63d" d="M 0 0 
L 0 3.5 
" style="stroke: #000000; stroke-width: 1.3"/>
      </defs>
      <g>
       <use xlink:href="#mca61bfb63d" x="115.363636" y="256.32" style="stroke: #000000; stroke-width: 1.3"/>
      </g>
     </g>
     <g id="text_1">
      <!-- $\mathdefault{10^{2}}$ -->
      <g transform="translate(103.923636 278.797969)scale(0.13 -0.13)">
       <defs>
        <path id="DejaVuSans-31" d="M 794 531 
L 1825 531 
L 1825 4091 
L 703 3866 
L 703 4441 
L 1819 4666 
L 2450 4666 
L 2450 531 
L 3481 531 
L 3481 0 
L 794 0 
L 794 531 
z
" transform="scale(0.015625)"/>
        <path id="DejaVuSans-30" d="M 2034 4250 
Q 1547 4250 1301 3770 
Q 1056 3291 1056 2328 
Q 1056 1369 1301 889 
Q 1547 409 2034 409 
Q 2525 409 2770 889 
Q 3016 1369 3016 2328 
Q 3016 3291 2770 3770 
Q 2525 4250 2034 4250 
z
M 2034 4750 
Q 2819 4750 3233 4129 
Q 3647 3509 3647 2328 
Q 3647 1150 3233 529 
Q 2819 -91 2034 -91 
Q 1250 -91 836 529 
Q 422 1150 422 2328 
Q 422 3509 836 4129 
Q 1250 4750 2034 4750 
z
" transform="scale(0.015625)"/>
        <path id="DejaVuSans-32" d="M 1228 531 
L 3431 531 
L 3431 0 
L 469 0 
L 469 531 
Q 828 903 1448 1529 
Q 2069 2156 2228 2338 
Q 2531 2678 2651 2914 
Q 2772 3150 2772 3378 
Q 2772 3750 2511 3984 
Q 2250 4219 1831 4219 
Q 1534 4219 1204 4116 
Q 875 4013 500 3803 
L 500 4441 
Q 881 4594 1212 4672 
Q 1544 4750 1819 4750 
Q 2544 4750 2975 4387 
Q 3406 4025 3406 3419 
Q 3406 3131 3298 2873 
Q 3191 2616 2906 2266 
Q 2828 2175 2409 1742 
Q 1991 1309 1228 531 
z
" transform="scale(0.015625)"/>
       </defs>
       <use xlink:href="#DejaVuSans-31" transform="translate(0 0.765625)"/>
       <use xlink:href="#DejaVuSans-30" transform="translate(63.623047 0.765625)"/>
       <use xlink:href="#DejaVuSans-32" transform="translate(128.203125 39.046875)scale(0.7)"/>
      </g>
     </g>
    </g>
    <g id="xtick_2">
     <g id="line2d_3">
      <path d="M 284.454545 256.32 
L 284.454545 34.56 
" clip-path="url(#p87ae23c55e)" style="fill: none; stroke: #b0b0b0; stroke-width: 1.3; stroke-linecap: square"/>
     </g>
     <g id="line2d_4">
      <g>
       <use xlink:href="#mca61bfb63d" x="284.454545" y="256.32" style="stroke: #000000; stroke-width: 1.3"/>
      </g>
     </g>
     <g id="text_2">
      <!-- $\mathdefault{10^{3}}$ -->
      <g transform="translate(273.014545 278.797969)scale(0.13 -0.13)">
       <defs>
        <path id="DejaVuSans-33" d="M 2597 2516 
Q 3050 2419 3304 2112 
Q 3559 1806 3559 1356 
Q 3559 666 3084 287 
Q 2609 -91 1734 -91 
Q 1441 -91 1130 -33 
Q 819 25 488 141 
L 488 750 
Q 750 597 1062 519 
Q 1375 441 1716 441 
Q 2309 441 2620 675 
Q 2931 909 2931 1356 
Q 2931 1769 2642 2001 
Q 2353 2234 1838 2234 
L 1294 2234 
L 1294 2753 
L 1863 2753 
Q 2328 2753 2575 2939 
Q 2822 3125 2822 3475 
Q 2822 3834 2567 4026 
Q 2313 4219 1838 4219 
Q 1578 4219 1281 4162 
Q 984 4106 628 3988 
L 628 4550 
Q 988 4650 1302 4700 
Q 1616 4750 1894 4750 
Q 2613 4750 3031 4423 
Q 3450 4097 3450 3541 
Q 3450 3153 3228 2886 
Q 3006 2619 2597 2516 
z
" transform="scale(0.015625)"/>
       </defs>
       <use xlink:href="#DejaVuSans-31" transform="translate(0 0.765625)"/>
       <use xlink:href="#DejaVuSans-30" transform="translate(63.623047 0.765625)"/>
       <use xlink:href="#DejaVuSans-33" transform="translate(128.203125 39.046875)scale(0.7)"/>
      </g>
     </g>
    </g>
    <g id="xtick_3">
     <g id="line2d_5">
      <path d="M 453.545455 256.32 
L 453.545455 34.56 
" clip-path="url(#p87ae23c55e)" style="fill: none; stroke: #b0b0b0; stroke-width: 1.3; stroke-linecap: square"/>
     </g>
     <g id="line2d_6">
      <g>
       <use xlink:href="#mca61bfb63d" x="453.545455" y="256.32" style="stroke: #000000; stroke-width: 1.3"/>
      </g>
     </g>
     <g id="text_3">
      <!-- $\mathdefault{10^{4}}$ -->
      <g transform="translate(442.105455 278.797969)scale(0.13 -0.13)">
       <defs>
        <path id="DejaVuSans-34" d="M 2419 4116 
L 825 1625 
L 2419 1625 
L 2419 4116 
z
M 2253 4666 
L 3047 4666 
L 3047 1625 
L 3713 1625 
L 3713 1100 
L 3047 1100 
L 3047 0 
L 2419 0 
L 2419 1100 
L 313 1100 
L 313 1709 
L 2253 4666 
z
" transform="scale(0.015625)"/>
       </defs>
       <use xlink:href="#DejaVuSans-31" transform="translate(0 0.684375)"/>
       <use xlink:href="#DejaVuSans-30" transform="translate(63.623047 0.684375)"/>
       <use xlink:href="#DejaVuSans-34" transform="translate(128.203125 38.965625)scale(0.7)"/>
      </g>
     </g>
    </g>
    <g id="xtick_4">
     <g id="line2d_7">
      <path d="M 622.636364 256.32 
L 622.636364 34.56 
" clip-path="url(#p87ae23c55e)" style="fill: none; stroke: #b0b0b0; stroke-width: 1.3; stroke-linecap: square"/>
     </g>
     <g id="line2d_8">
      <g>
       <use xlink:href="#mca61bfb63d" x="622.636364" y="256.32" style="stroke: #000000; stroke-width: 1.3"/>
      </g>
     </g>
     <g id="text_4">
      <!-- $\mathdefault{10^{5}}$ -->
      <g transform="translate(611.196364 278.797969)scale(0.13 -0.13)">
       <defs>
        <path id="DejaVuSans-35" d="M 691 4666 
L 3169 4666 
L 3169 4134 
L 1269 4134 
L 1269 2991 
Q 1406 3038 1543 3061 
Q 1681 3084 1819 3084 
Q 2600 3084 3056 2656 
Q 3513 2228 3513 1497 
Q 3513 744 3044 326 
Q 2575 -91 1722 -91 
Q 1428 -91 1123 -41 
Q 819 9 494 109 
L 494 744 
Q 775 591 1075 516 
Q 1375 441 1709 441 
Q 2250 441 2565 725 
Q 2881 1009 2881 1497 
Q 2881 1984 2565 2268 
Q 2250 2553 1709 2553 
Q 1456 2553 1204 2497 
Q 953 2441 691 2322 
L 691 4666 
z
" transform="scale(0.015625)"/>
       </defs>
       <use xlink:href="#DejaVuSans-31" transform="translate(0 0.684375)"/>
       <use xlink:href="#DejaVuSans-30" transform="translate(63.623047 0.684375)"/>
       <use xlink:href="#DejaVuSans-35" transform="translate(128.203125 38.965625)scale(0.7)"/>
      </g>
     </g>
    </g>
    <g id="xtick_5">
     <g id="line2d_9">
      <path d="M 98.977034 256.32 
L 98.977034 34.56 
" clip-path="url(#p87ae23c55e)" style="fill: none; stroke: #b0b0b0; stroke-opacity: 0.3; stroke-width: 1.3; stroke-linecap: square"/>
     </g>
     <g id="line2d_10">
      <defs>
       <path id="m28c3b65d72" d="M 0 0 
L 0 2 
" style="stroke: #000000; stroke-width: 0.65"/>
      </defs>
      <g>
       <use xlink:href="#m28c3b65d72" x="98.977034" y="256.32" style="stroke: #000000; stroke-width: 0.65"/>
      </g>
     </g>
    </g>
    <g id="xtick_6">
     <g id="line2d_11">
      <path d="M 107.626461 256.32 
L 107.626461 34.56 
" clip-path="url(#p87ae23c55e)" style="fill: none; stroke: #b0b0b0; stroke-opacity: 0.3; stroke-width: 1.3; stroke-linecap: square"/>
     </g>
     <g id="line2d_12">
      <g>
       <use xlink:href="#m28c3b65d72" x="107.626461" y="256.32" style="stroke: #000000; stroke-width: 0.65"/>
      </g>
     </g>
    </g>
    <g id="xtick_7">
     <g id="line2d_13">
      <path d="M 166.265072 256.32 
L 166.265072 34.56 
" clip-path="url(#p87ae23c55e)" style="fill: none; stroke: #b0b0b0; stroke-opacity: 0.3; stroke-width: 1.3; stroke-linecap: square"/>
     </g>
     <g id="line2d_14">
      <g>
       <use xlink:href="#m28c3b65d72" x="166.265072" y="256.32" style="stroke: #000000; stroke-width: 0.65"/>
      </g>
     </g>
    </g>
    <g id="xtick_8">
     <g id="line2d_15">
      <path d="M 196.040503 256.32 
L 196.040503 34.56 
" clip-path="url(#p87ae23c55e)" style="fill: none; stroke: #b0b0b0; stroke-opacity: 0.3; stroke-width: 1.3; stroke-linecap: square"/>
     </g>
     <g id="line2d_16">
      <g>
       <use xlink:href="#m28c3b65d72" x="196.040503" y="256.32" style="stroke: #000000; stroke-width: 0.65"/>
      </g>
     </g>
    </g>
    <g id="xtick_9">
     <g id="line2d_17">
      <path d="M 217.166508 256.32 
L 217.166508 34.56 
" clip-path="url(#p87ae23c55e)" style="fill: none; stroke: #b0b0b0; stroke-opacity: 0.3; stroke-width: 1.3; stroke-linecap: square"/>
     </g>
     <g id="line2d_18">
      <g>
       <use xlink:href="#m28c3b65d72" x="217.166508" y="256.32" style="stroke: #000000; stroke-width: 0.65"/>
      </g>
     </g>
    </g>
    <g id="xtick_10">
     <g id="line2d_19">
      <path d="M 233.55311 256.32 
L 233.55311 34.56 
" clip-path="url(#p87ae23c55e)" style="fill: none; stroke: #b0b0b0; stroke-opacity: 0.3; stroke-width: 1.3; stroke-linecap: square"/>
     </g>
     <g id="line2d_20">
      <g>
       <use xlink:href="#m28c3b65d72" x="233.55311" y="256.32" style="stroke: #000000; stroke-width: 0.65"/>
      </g>
     </g>
    </g>
    <g id="xtick_11">
     <g id="line2d_21">
      <path d="M 246.941939 256.32 
L 246.941939 34.56 
" clip-path="url(#p87ae23c55e)" style="fill: none; stroke: #b0b0b0; stroke-opacity: 0.3; stroke-width: 1.3; stroke-linecap: square"/>
     </g>
     <g id="line2d_22">
      <g>
       <use xlink:href="#m28c3b65d72" x="246.941939" y="256.32" style="stroke: #000000; stroke-width: 0.65"/>
      </g>
     </g>
    </g>
    <g id="xtick_12">
     <g id="line2d_23">
      <path d="M 258.262032 256.32 
L 258.262032 34.56 
" clip-path="url(#p87ae23c55e)" style="fill: none; stroke: #b0b0b0; stroke-opacity: 0.3; stroke-width: 1.3; stroke-linecap: square"/>
     </g>
     <g id="line2d_24">
      <g>
       <use xlink:href="#m28c3b65d72" x="258.262032" y="256.32" style="stroke: #000000; stroke-width: 0.65"/>
      </g>
     </g>
    </g>
    <g id="xtick_13">
     <g id="line2d_25">
      <path d="M 268.067943 256.32 
L 268.067943 34.56 
" clip-path="url(#p87ae23c55e)" style="fill: none; stroke: #b0b0b0; stroke-opacity: 0.3; stroke-width: 1.3; stroke-linecap: square"/>
     </g>
     <g id="line2d_26">
      <g>
       <use xlink:href="#m28c3b65d72" x="268.067943" y="256.32" style="stroke: #000000; stroke-width: 0.65"/>
      </g>
     </g>
    </g>
    <g id="xtick_14">
     <g id="line2d_27">
      <path d="M 276.71737 256.32 
L 276.71737 34.56 
" clip-path="url(#p87ae23c55e)" style="fill: none; stroke: #b0b0b0; stroke-opacity: 0.3; stroke-width: 1.3; stroke-linecap: square"/>
     </g>
     <g id="line2d_28">
      <g>
       <use xlink:href="#m28c3b65d72" x="276.71737" y="256.32" style="stroke: #000000; stroke-width: 0.65"/>
      </g>
     </g>
    </g>
    <g id="xtick_15">
     <g id="line2d_29">
      <path d="M 335.355981 256.32 
L 335.355981 34.56 
" clip-path="url(#p87ae23c55e)" style="fill: none; stroke: #b0b0b0; stroke-opacity: 0.3; stroke-width: 1.3; stroke-linecap: square"/>
     </g>
     <g id="line2d_30">
      <g>
       <use xlink:href="#m28c3b65d72" x="335.355981" y="256.32" style="stroke: #000000; stroke-width: 0.65"/>
      </g>
     </g>
    </g>
    <g id="xtick_16">
     <g id="line2d_31">
      <path d="M 365.131412 256.32 
L 365.131412 34.56 
" clip-path="url(#p87ae23c55e)" style="fill: none; stroke: #b0b0b0; stroke-opacity: 0.3; stroke-width: 1.3; stroke-linecap: square"/>
     </g>
     <g id="line2d_32">
      <g>
       <use xlink:href="#m28c3b65d72" x="365.131412" y="256.32" style="stroke: #000000; stroke-width: 0.65"/>
      </g>
     </g>
    </g>
    <g id="xtick_17">
     <g id="line2d_33">
      <path d="M 386.257417 256.32 
L 386.257417 34.56 
" clip-path="url(#p87ae23c55e)" style="fill: none; stroke: #b0b0b0; stroke-opacity: 0.3; stroke-width: 1.3; stroke-linecap: square"/>
     </g>
     <g id="line2d_34">
      <g>
       <use xlink:href="#m28c3b65d72" x="386.257417" y="256.32" style="stroke: #000000; stroke-width: 0.65"/>
      </g>
     </g>
    </g>
    <g id="xtick_18">
     <g id="line2d_35">
      <path d="M 402.644019 256.32 
L 402.644019 34.56 
" clip-path="url(#p87ae23c55e)" style="fill: none; stroke: #b0b0b0; stroke-opacity: 0.3; stroke-width: 1.3; stroke-linecap: square"/>
     </g>
     <g id="line2d_36">
      <g>
       <use xlink:href="#m28c3b65d72" x="402.644019" y="256.32" style="stroke: #000000; stroke-width: 0.65"/>
      </g>
     </g>
    </g>
    <g id="xtick_19">
     <g id="line2d_37">
      <path d="M 416.032848 256.32 
L 416.032848 34.56 
" clip-path="url(#p87ae23c55e)" style="fill: none; stroke: #b0b0b0; stroke-opacity: 0.3; stroke-width: 1.3; stroke-linecap: square"/>
     </g>
     <g id="line2d_38">
      <g>
       <use xlink:href="#m28c3b65d72" x="416.032848" y="256.32" style="stroke: #000000; stroke-width: 0.65"/>
      </g>
     </g>
    </g>
    <g id="xtick_20">
     <g id="line2d_39">
      <path d="M 427.352941 256.32 
L 427.352941 34.56 
" clip-path="url(#p87ae23c55e)" style="fill: none; stroke: #b0b0b0; stroke-opacity: 0.3; stroke-width: 1.3; stroke-linecap: square"/>
     </g>
     <g id="line2d_40">
      <g>
       <use xlink:href="#m28c3b65d72" x="427.352941" y="256.32" style="stroke: #000000; stroke-width: 0.65"/>
      </g>
     </g>
    </g>
    <g id="xtick_21">
     <g id="line2d_41">
      <path d="M 437.158852 256.32 
L 437.158852 34.56 
" clip-path="url(#p87ae23c55e)" style="fill: none; stroke: #b0b0b0; stroke-opacity: 0.3; stroke-width: 1.3; stroke-linecap: square"/>
     </g>
     <g id="line2d_42">
      <g>
       <use xlink:href="#m28c3b65d72" x="437.158852" y="256.32" style="stroke: #000000; stroke-width: 0.65"/>
      </g>
     </g>
    </g>
    <g id="xtick_22">
     <g id="line2d_43">
      <path d="M 445.808279 256.32 
L 445.808279 34.56 
" clip-path="url(#p87ae23c55e)" style="fill: none; stroke: #b0b0b0; stroke-opacity: 0.3; stroke-width: 1.3; stroke-linecap: square"/>
     </g>
     <g id="line2d_44">
      <g>
       <use xlink:href="#m28c3b65d72" x="445.808279" y="256.32" style="stroke: #000000; stroke-width: 0.65"/>
      </g>
     </g>
    </g>
    <g id="xtick_23">
     <g id="line2d_45">
      <path d="M 504.44689 256.32 
L 504.44689 34.56 
" clip-path="url(#p87ae23c55e)" style="fill: none; stroke: #b0b0b0; stroke-opacity: 0.3; stroke-width: 1.3; stroke-linecap: square"/>
     </g>
     <g id="line2d_46">
      <g>
       <use xlink:href="#m28c3b65d72" x="504.44689" y="256.32" style="stroke: #000000; stroke-width: 0.65"/>
      </g>
     </g>
    </g>
    <g id="xtick_24">
     <g id="line2d_47">
      <path d="M 534.222321 256.32 
L 534.222321 34.56 
" clip-path="url(#p87ae23c55e)" style="fill: none; stroke: #b0b0b0; stroke-opacity: 0.3; stroke-width: 1.3; stroke-linecap: square"/>
     </g>
     <g id="line2d_48">
      <g>
       <use xlink:href="#m28c3b65d72" x="534.222321" y="256.32" style="stroke: #000000; stroke-width: 0.65"/>
      </g>
     </g>
    </g>
    <g id="xtick_25">
     <g id="line2d_49">
      <path d="M 555.348326 256.32 
L 555.348326 34.56 
" clip-path="url(#p87ae23c55e)" style="fill: none; stroke: #b0b0b0; stroke-opacity: 0.3; stroke-width: 1.3; stroke-linecap: square"/>
     </g>
     <g id="line2d_50">
      <g>
       <use xlink:href="#m28c3b65d72" x="555.348326" y="256.32" style="stroke: #000000; stroke-width: 0.65"/>
      </g>
     </g>
    </g>
    <g id="xtick_26">
     <g id="line2d_51">
      <path d="M 571.734928 256.32 
L 571.734928 34.56 
" clip-path="url(#p87ae23c55e)" style="fill: none; stroke: #b0b0b0; stroke-opacity: 0.3; stroke-width: 1.3; stroke-linecap: square"/>
     </g>
     <g id="line2d_52">
      <g>
       <use xlink:href="#m28c3b65d72" x="571.734928" y="256.32" style="stroke: #000000; stroke-width: 0.65"/>
      </g>
     </g>
    </g>
    <g id="xtick_27">
     <g id="line2d_53">
      <path d="M 585.123757 256.32 
L 585.123757 34.56 
" clip-path="url(#p87ae23c55e)" style="fill: none; stroke: #b0b0b0; stroke-opacity: 0.3; stroke-width: 1.3; stroke-linecap: square"/>
     </g>
     <g id="line2d_54">
      <g>
       <use xlink:href="#m28c3b65d72" x="585.123757" y="256.32" style="stroke: #000000; stroke-width: 0.65"/>
      </g>
     </g>
    </g>
    <g id="xtick_28">
     <g id="line2d_55">
      <path d="M 596.44385 256.32 
L 596.44385 34.56 
" clip-path="url(#p87ae23c55e)" style="fill: none; stroke: #b0b0b0; stroke-opacity: 0.3; stroke-width: 1.3; stroke-linecap: square"/>
     </g>
     <g id="line2d_56">
      <g>
       <use xlink:href="#m28c3b65d72" x="596.44385" y="256.32" style="stroke: #000000; stroke-width: 0.65"/>
      </g>
     </g>
    </g>
    <g id="xtick_29">
     <g id="line2d_57">
      <path d="M 606.249761 256.32 
L 606.249761 34.56 
" clip-path="url(#p87ae23c55e)" style="fill: none; stroke: #b0b0b0; stroke-opacity: 0.3; stroke-width: 1.3; stroke-linecap: square"/>
     </g>
     <g id="line2d_58">
      <g>
       <use xlink:href="#m28c3b65d72" x="606.249761" y="256.32" style="stroke: #000000; stroke-width: 0.65"/>
      </g>
     </g>
    </g>
    <g id="xtick_30">
     <g id="line2d_59">
      <path d="M 614.899188 256.32 
L 614.899188 34.56 
" clip-path="url(#p87ae23c55e)" style="fill: none; stroke: #b0b0b0; stroke-opacity: 0.3; stroke-width: 1.3; stroke-linecap: square"/>
     </g>
     <g id="line2d_60">
      <g>
       <use xlink:href="#m28c3b65d72" x="614.899188" y="256.32" style="stroke: #000000; stroke-width: 0.65"/>
      </g>
     </g>
    </g>
    <g id="text_5">
     <!-- Frecuencia [Hz] -->
     <g transform="translate(313.553984 296.367328)scale(0.143 -0.143)">
      <defs>
       <path id="DejaVuSans-46" d="M 628 4666 
L 3309 4666 
L 3309 4134 
L 1259 4134 
L 1259 2759 
L 3109 2759 
L 3109 2228 
L 1259 2228 
L 1259 0 
L 628 0 
L 628 4666 
z
" transform="scale(0.015625)"/>
       <path id="DejaVuSans-72" d="M 2631 2963 
Q 2534 3019 2420 3045 
Q 2306 3072 2169 3072 
Q 1681 3072 1420 2755 
Q 1159 2438 1159 1844 
L 1159 0 
L 581 0 
L 581 3500 
L 1159 3500 
L 1159 2956 
Q 1341 3275 1631 3429 
Q 1922 3584 2338 3584 
Q 2397 3584 2469 3576 
Q 2541 3569 2628 3553 
L 2631 2963 
z
" transform="scale(0.015625)"/>
       <path id="DejaVuSans-65" d="M 3597 1894 
L 3597 1613 
L 953 1613 
Q 991 1019 1311 708 
Q 1631 397 2203 397 
Q 2534 397 2845 478 
Q 3156 559 3463 722 
L 3463 178 
Q 3153 47 2828 -22 
Q 2503 -91 2169 -91 
Q 1331 -91 842 396 
Q 353 884 353 1716 
Q 353 2575 817 3079 
Q 1281 3584 2069 3584 
Q 2775 3584 3186 3129 
Q 3597 2675 3597 1894 
z
M 3022 2063 
Q 3016 2534 2758 2815 
Q 2500 3097 2075 3097 
Q 1594 3097 1305 2825 
Q 1016 2553 972 2059 
L 3022 2063 
z
" transform="scale(0.015625)"/>
       <path id="DejaVuSans-63" d="M 3122 3366 
L 3122 2828 
Q 2878 2963 2633 3030 
Q 2388 3097 2138 3097 
Q 1578 3097 1268 2742 
Q 959 2388 959 1747 
Q 959 1106 1268 751 
Q 1578 397 2138 397 
Q 2388 397 2633 464 
Q 2878 531 3122 666 
L 3122 134 
Q 2881 22 2623 -34 
Q 2366 -91 2075 -91 
Q 1284 -91 818 406 
Q 353 903 353 1747 
Q 353 2603 823 3093 
Q 1294 3584 2113 3584 
Q 2378 3584 2631 3529 
Q 2884 3475 3122 3366 
z
" transform="scale(0.015625)"/>
       <path id="DejaVuSans-75" d="M 544 1381 
L 544 3500 
L 1119 3500 
L 1119 1403 
Q 1119 906 1312 657 
Q 1506 409 1894 409 
Q 2359 409 2629 706 
Q 2900 1003 2900 1516 
L 2900 3500 
L 3475 3500 
L 3475 0 
L 2900 0 
L 2900 538 
Q 2691 219 2414 64 
Q 2138 -91 1772 -91 
Q 1169 -91 856 284 
Q 544 659 544 1381 
z
M 1991 3584 
L 1991 3584 
z
" transform="scale(0.015625)"/>
       <path id="DejaVuSans-6e" d="M 3513 2113 
L 3513 0 
L 2938 0 
L 2938 2094 
Q 2938 2591 2744 2837 
Q 2550 3084 2163 3084 
Q 1697 3084 1428 2787 
Q 1159 2491 1159 1978 
L 1159 0 
L 581 0 
L 581 3500 
L 1159 3500 
L 1159 2956 
Q 1366 3272 1645 3428 
Q 1925 3584 2291 3584 
Q 2894 3584 3203 3211 
Q 3513 2838 3513 2113 
z
" transform="scale(0.015625)"/>
       <path id="DejaVuSans-69" d="M 603 3500 
L 1178 3500 
L 1178 0 
L 603 0 
L 603 3500 
z
M 603 4863 
L 1178 4863 
L 1178 4134 
L 603 4134 
L 603 4863 
z
" transform="scale(0.015625)"/>
       <path id="DejaVuSans-61" d="M 2194 1759 
Q 1497 1759 1228 1600 
Q 959 1441 959 1056 
Q 959 750 1161 570 
Q 1363 391 1709 391 
Q 2188 391 2477 730 
Q 2766 1069 2766 1631 
L 2766 1759 
L 2194 1759 
z
M 3341 1997 
L 3341 0 
L 2766 0 
L 2766 531 
Q 2569 213 2275 61 
Q 1981 -91 1556 -91 
Q 1019 -91 701 211 
Q 384 513 384 1019 
Q 384 1609 779 1909 
Q 1175 2209 1959 2209 
L 2766 2209 
L 2766 2266 
Q 2766 2663 2505 2880 
Q 2244 3097 1772 3097 
Q 1472 3097 1187 3025 
Q 903 2953 641 2809 
L 641 3341 
Q 956 3463 1253 3523 
Q 1550 3584 1831 3584 
Q 2591 3584 2966 3190 
Q 3341 2797 3341 1997 
z
" transform="scale(0.015625)"/>
       <path id="DejaVuSans-20" transform="scale(0.015625)"/>
       <path id="DejaVuSans-5b" d="M 550 4863 
L 1875 4863 
L 1875 4416 
L 1125 4416 
L 1125 -397 
L 1875 -397 
L 1875 -844 
L 550 -844 
L 550 4863 
z
" transform="scale(0.015625)"/>
       <path id="DejaVuSans-48" d="M 628 4666 
L 1259 4666 
L 1259 2753 
L 3553 2753 
L 3553 4666 
L 4184 4666 
L 4184 0 
L 3553 0 
L 3553 2222 
L 1259 2222 
L 1259 0 
L 628 0 
L 628 4666 
z
" transform="scale(0.015625)"/>
       <path id="DejaVuSans-7a" d="M 353 3500 
L 3084 3500 
L 3084 2975 
L 922 459 
L 3084 459 
L 3084 0 
L 275 0 
L 275 525 
L 2438 3041 
L 353 3041 
L 353 3500 
z
" transform="scale(0.015625)"/>
       <path id="DejaVuSans-5d" d="M 1947 4863 
L 1947 -844 
L 622 -844 
L 622 -397 
L 1369 -397 
L 1369 4416 
L 622 4416 
L 622 4863 
L 1947 4863 
z
" transform="scale(0.015625)"/>
      </defs>
      <use xlink:href="#DejaVuSans-46"/>
      <use xlink:href="#DejaVuSans-72" x="50.269531"/>
      <use xlink:href="#DejaVuSans-65" x="89.132812"/>
      <use xlink:href="#DejaVuSans-63" x="150.65625"/>
      <use xlink:href="#DejaVuSans-75" x="205.636719"/>
      <use xlink:href="#DejaVuSans-65" x="269.015625"/>
      <use xlink:href="#DejaVuSans-6e" x="330.539062"/>
      <use xlink:href="#DejaVuSans-63" x="393.917969"/>
      <use xlink:href="#DejaVuSans-69" x="448.898438"/>
      <use xlink:href="#DejaVuSans-61" x="476.681641"/>
      <use xlink:href="#DejaVuSans-20" x="537.960938"/>
      <use xlink:href="#DejaVuSans-5b" x="569.748047"/>
      <use xlink:href="#DejaVuSans-48" x="608.761719"/>
      <use xlink:href="#DejaVuSans-7a" x="683.957031"/>
      <use xlink:href="#DejaVuSans-5d" x="736.447266"/>
     </g>
    </g>
   </g>
   <g id="matplotlib.axis_2">
    <g id="ytick_1">
     <g id="line2d_61">
      <path d="M 90 214.686635 
L 648 214.686635 
" clip-path="url(#p87ae23c55e)" style="fill: none; stroke: #b0b0b0; stroke-width: 1.3; stroke-linecap: square"/>
     </g>
     <g id="line2d_62">
      <defs>
       <path id="m473f5d6f68" d="M 0 0 
L -3.5 0 
" style="stroke: #000000; stroke-width: 1.3"/>
      </defs>
      <g>
       <use xlink:href="#m473f5d6f68" x="90" y="214.686635" style="stroke: #000000; stroke-width: 1.3"/>
      </g>
     </g>
     <g id="text_6">
      <!-- −50 -->
      <g transform="translate(49.963906 219.625619)scale(0.13 -0.13)">
       <defs>
        <path id="DejaVuSans-2212" d="M 678 2272 
L 4684 2272 
L 4684 1741 
L 678 1741 
L 678 2272 
z
" transform="scale(0.015625)"/>
       </defs>
       <use xlink:href="#DejaVuSans-2212"/>
       <use xlink:href="#DejaVuSans-35" x="83.789062"/>
       <use xlink:href="#DejaVuSans-30" x="147.412109"/>
      </g>
     </g>
    </g>
    <g id="ytick_2">
     <g id="line2d_63">
      <path d="M 90 167.219395 
L 648 167.219395 
" clip-path="url(#p87ae23c55e)" style="fill: none; stroke: #b0b0b0; stroke-width: 1.3; stroke-linecap: square"/>
     </g>
     <g id="line2d_64">
      <g>
       <use xlink:href="#m473f5d6f68" x="90" y="167.219395" style="stroke: #000000; stroke-width: 1.3"/>
      </g>
     </g>
     <g id="text_7">
      <!-- 0 -->
      <g transform="translate(69.12875 172.158379)scale(0.13 -0.13)">
       <use xlink:href="#DejaVuSans-30"/>
      </g>
     </g>
    </g>
    <g id="ytick_3">
     <g id="line2d_65">
      <path d="M 90 119.752155 
L 648 119.752155 
" clip-path="url(#p87ae23c55e)" style="fill: none; stroke: #b0b0b0; stroke-width: 1.3; stroke-linecap: square"/>
     </g>
     <g id="line2d_66">
      <g>
       <use xlink:href="#m473f5d6f68" x="90" y="119.752155" style="stroke: #000000; stroke-width: 1.3"/>
      </g>
     </g>
     <g id="text_8">
      <!-- 50 -->
      <g transform="translate(60.8575 124.69114)scale(0.13 -0.13)">
       <use xlink:href="#DejaVuSans-35"/>
       <use xlink:href="#DejaVuSans-30" x="63.623047"/>
      </g>
     </g>
    </g>
    <g id="ytick_4">
     <g id="line2d_67">
      <path d="M 90 72.284916 
L 648 72.284916 
" clip-path="url(#p87ae23c55e)" style="fill: none; stroke: #b0b0b0; stroke-width: 1.3; stroke-linecap: square"/>
     </g>
     <g id="line2d_68">
      <g>
       <use xlink:href="#m473f5d6f68" x="90" y="72.284916" style="stroke: #000000; stroke-width: 1.3"/>
      </g>
     </g>
     <g id="text_9">
      <!-- 100 -->
      <g transform="translate(52.58625 77.2239)scale(0.13 -0.13)">
       <use xlink:href="#DejaVuSans-31"/>
       <use xlink:href="#DejaVuSans-30" x="63.623047"/>
       <use xlink:href="#DejaVuSans-30" x="127.246094"/>
      </g>
     </g>
    </g>
    <g id="ytick_5">
     <g id="line2d_69">
      <path d="M 90 252.660427 
L 648 252.660427 
" clip-path="url(#p87ae23c55e)" style="fill: none; stroke: #b0b0b0; stroke-opacity: 0.3; stroke-width: 1.3; stroke-linecap: square"/>
     </g>
     <g id="line2d_70">
      <defs>
       <path id="m7d8828d53c" d="M 0 0 
L -2 0 
" style="stroke: #000000; stroke-width: 0.65"/>
      </defs>
      <g>
       <use xlink:href="#m7d8828d53c" x="90" y="252.660427" style="stroke: #000000; stroke-width: 0.65"/>
      </g>
     </g>
    </g>
    <g id="ytick_6">
     <g id="line2d_71">
      <path d="M 90 243.166979 
L 648 243.166979 
" clip-path="url(#p87ae23c55e)" style="fill: none; stroke: #b0b0b0; stroke-opacity: 0.3; stroke-width: 1.3; stroke-linecap: square"/>
     </g>
     <g id="line2d_72">
      <g>
       <use xlink:href="#m7d8828d53c" x="90" y="243.166979" style="stroke: #000000; stroke-width: 0.65"/>
      </g>
     </g>
    </g>
    <g id="ytick_7">
     <g id="line2d_73">
      <path d="M 90 233.673531 
L 648 233.673531 
" clip-path="url(#p87ae23c55e)" style="fill: none; stroke: #b0b0b0; stroke-opacity: 0.3; stroke-width: 1.3; stroke-linecap: square"/>
     </g>
     <g id="line2d_74">
      <g>
       <use xlink:href="#m7d8828d53c" x="90" y="233.673531" style="stroke: #000000; stroke-width: 0.65"/>
      </g>
     </g>
    </g>
    <g id="ytick_8">
     <g id="line2d_75">
      <path d="M 90 224.180083 
L 648 224.180083 
" clip-path="url(#p87ae23c55e)" style="fill: none; stroke: #b0b0b0; stroke-opacity: 0.3; stroke-width: 1.3; stroke-linecap: square"/>
     </g>
     <g id="line2d_76">
      <g>
       <use xlink:href="#m7d8828d53c" x="90" y="224.180083" style="stroke: #000000; stroke-width: 0.65"/>
      </g>
     </g>
    </g>
    <g id="ytick_9">
     <g id="line2d_77">
      <path d="M 90 205.193187 
L 648 205.193187 
" clip-path="url(#p87ae23c55e)" style="fill: none; stroke: #b0b0b0; stroke-opacity: 0.3; stroke-width: 1.3; stroke-linecap: square"/>
     </g>
     <g id="line2d_78">
      <g>
       <use xlink:href="#m7d8828d53c" x="90" y="205.193187" style="stroke: #000000; stroke-width: 0.65"/>
      </g>
     </g>
    </g>
    <g id="ytick_10">
     <g id="line2d_79">
      <path d="M 90 195.699739 
L 648 195.699739 
" clip-path="url(#p87ae23c55e)" style="fill: none; stroke: #b0b0b0; stroke-opacity: 0.3; stroke-width: 1.3; stroke-linecap: square"/>
     </g>
     <g id="line2d_80">
      <g>
       <use xlink:href="#m7d8828d53c" x="90" y="195.699739" style="stroke: #000000; stroke-width: 0.65"/>
      </g>
     </g>
    </g>
    <g id="ytick_11">
     <g id="line2d_81">
      <path d="M 90 186.206291 
L 648 186.206291 
" clip-path="url(#p87ae23c55e)" style="fill: none; stroke: #b0b0b0; stroke-opacity: 0.3; stroke-width: 1.3; stroke-linecap: square"/>
     </g>
     <g id="line2d_82">
      <g>
       <use xlink:href="#m7d8828d53c" x="90" y="186.206291" style="stroke: #000000; stroke-width: 0.65"/>
      </g>
     </g>
    </g>
    <g id="ytick_12">
     <g id="line2d_83">
      <path d="M 90 176.712843 
L 648 176.712843 
" clip-path="url(#p87ae23c55e)" style="fill: none; stroke: #b0b0b0; stroke-opacity: 0.3; stroke-width: 1.3; stroke-linecap: square"/>
     </g>
     <g id="line2d_84">
      <g>
       <use xlink:href="#m7d8828d53c" x="90" y="176.712843" style="stroke: #000000; stroke-width: 0.65"/>
      </g>
     </g>
    </g>
    <g id="ytick_13">
     <g id="line2d_85">
      <path d="M 90 157.725947 
L 648 157.725947 
" clip-path="url(#p87ae23c55e)" style="fill: none; stroke: #b0b0b0; stroke-opacity: 0.3; stroke-width: 1.3; stroke-linecap: square"/>
     </g>
     <g id="line2d_86">
      <g>
       <use xlink:href="#m7d8828d53c" x="90" y="157.725947" style="stroke: #000000; stroke-width: 0.65"/>
      </g>
     </g>
    </g>
    <g id="ytick_14">
     <g id="line2d_87">
      <path d="M 90 148.232499 
L 648 148.232499 
" clip-path="url(#p87ae23c55e)" style="fill: none; stroke: #b0b0b0; stroke-opacity: 0.3; stroke-width: 1.3; stroke-linecap: square"/>
     </g>
     <g id="line2d_88">
      <g>
       <use xlink:href="#m7d8828d53c" x="90" y="148.232499" style="stroke: #000000; stroke-width: 0.65"/>
      </g>
     </g>
    </g>
    <g id="ytick_15">
     <g id="line2d_89">
      <path d="M 90 138.739051 
L 648 138.739051 
" clip-path="url(#p87ae23c55e)" style="fill: none; stroke: #b0b0b0; stroke-opacity: 0.3; stroke-width: 1.3; stroke-linecap: square"/>
     </g>
     <g id="line2d_90">
      <g>
       <use xlink:href="#m7d8828d53c" x="90" y="138.739051" style="stroke: #000000; stroke-width: 0.65"/>
      </g>
     </g>
    </g>
    <g id="ytick_16">
     <g id="line2d_91">
      <path d="M 90 129.245603 
L 648 129.245603 
" clip-path="url(#p87ae23c55e)" style="fill: none; stroke: #b0b0b0; stroke-opacity: 0.3; stroke-width: 1.3; stroke-linecap: square"/>
     </g>
     <g id="line2d_92">
      <g>
       <use xlink:href="#m7d8828d53c" x="90" y="129.245603" style="stroke: #000000; stroke-width: 0.65"/>
      </g>
     </g>
    </g>
    <g id="ytick_17">
     <g id="line2d_93">
      <path d="M 90 110.258708 
L 648 110.258708 
" clip-path="url(#p87ae23c55e)" style="fill: none; stroke: #b0b0b0; stroke-opacity: 0.3; stroke-width: 1.3; stroke-linecap: square"/>
     </g>
     <g id="line2d_94">
      <g>
       <use xlink:href="#m7d8828d53c" x="90" y="110.258708" style="stroke: #000000; stroke-width: 0.65"/>
      </g>
     </g>
    </g>
    <g id="ytick_18">
     <g id="line2d_95">
      <path d="M 90 100.76526 
L 648 100.76526 
" clip-path="url(#p87ae23c55e)" style="fill: none; stroke: #b0b0b0; stroke-opacity: 0.3; stroke-width: 1.3; stroke-linecap: square"/>
     </g>
     <g id="line2d_96">
      <g>
       <use xlink:href="#m7d8828d53c" x="90" y="100.76526" style="stroke: #000000; stroke-width: 0.65"/>
      </g>
     </g>
    </g>
    <g id="ytick_19">
     <g id="line2d_97">
      <path d="M 90 91.271812 
L 648 91.271812 
" clip-path="url(#p87ae23c55e)" style="fill: none; stroke: #b0b0b0; stroke-opacity: 0.3; stroke-width: 1.3; stroke-linecap: square"/>
     </g>
     <g id="line2d_98">
      <g>
       <use xlink:href="#m7d8828d53c" x="90" y="91.271812" style="stroke: #000000; stroke-width: 0.65"/>
      </g>
     </g>
    </g>
    <g id="ytick_20">
     <g id="line2d_99">
      <path d="M 90 81.778364 
L 648 81.778364 
" clip-path="url(#p87ae23c55e)" style="fill: none; stroke: #b0b0b0; stroke-opacity: 0.3; stroke-width: 1.3; stroke-linecap: square"/>
     </g>
     <g id="line2d_100">
      <g>
       <use xlink:href="#m7d8828d53c" x="90" y="81.778364" style="stroke: #000000; stroke-width: 0.65"/>
      </g>
     </g>
    </g>
    <g id="ytick_21">
     <g id="line2d_101">
      <path d="M 90 62.791468 
L 648 62.791468 
" clip-path="url(#p87ae23c55e)" style="fill: none; stroke: #b0b0b0; stroke-opacity: 0.3; stroke-width: 1.3; stroke-linecap: square"/>
     </g>
     <g id="line2d_102">
      <g>
       <use xlink:href="#m7d8828d53c" x="90" y="62.791468" style="stroke: #000000; stroke-width: 0.65"/>
      </g>
     </g>
    </g>
    <g id="ytick_22">
     <g id="line2d_103">
      <path d="M 90 53.29802 
L 648 53.29802 
" clip-path="url(#p87ae23c55e)" style="fill: none; stroke: #b0b0b0; stroke-opacity: 0.3; stroke-width: 1.3; stroke-linecap: square"/>
     </g>
     <g id="line2d_104">
      <g>
       <use xlink:href="#m7d8828d53c" x="90" y="53.29802" style="stroke: #000000; stroke-width: 0.65"/>
      </g>
     </g>
    </g>
    <g id="ytick_23">
     <g id="line2d_105">
      <path d="M 90 43.804572 
L 648 43.804572 
" clip-path="url(#p87ae23c55e)" style="fill: none; stroke: #b0b0b0; stroke-opacity: 0.3; stroke-width: 1.3; stroke-linecap: square"/>
     </g>
     <g id="line2d_106">
      <g>
       <use xlink:href="#m7d8828d53c" x="90" y="43.804572" style="stroke: #000000; stroke-width: 0.65"/>
      </g>
     </g>
    </g>
    <g id="text_10">
     <!-- Fase [°] -->
     <g transform="translate(42.989953 172.83232)rotate(-90)scale(0.143 -0.143)">
      <defs>
       <path id="DejaVuSans-73" d="M 2834 3397 
L 2834 2853 
Q 2591 2978 2328 3040 
Q 2066 3103 1784 3103 
Q 1356 3103 1142 2972 
Q 928 2841 928 2578 
Q 928 2378 1081 2264 
Q 1234 2150 1697 2047 
L 1894 2003 
Q 2506 1872 2764 1633 
Q 3022 1394 3022 966 
Q 3022 478 2636 193 
Q 2250 -91 1575 -91 
Q 1294 -91 989 -36 
Q 684 19 347 128 
L 347 722 
Q 666 556 975 473 
Q 1284 391 1588 391 
Q 1994 391 2212 530 
Q 2431 669 2431 922 
Q 2431 1156 2273 1281 
Q 2116 1406 1581 1522 
L 1381 1569 
Q 847 1681 609 1914 
Q 372 2147 372 2553 
Q 372 3047 722 3315 
Q 1072 3584 1716 3584 
Q 2034 3584 2315 3537 
Q 2597 3491 2834 3397 
z
" transform="scale(0.015625)"/>
       <path id="DejaVuSans-b0" d="M 1600 4347 
Q 1350 4347 1178 4173 
Q 1006 4000 1006 3750 
Q 1006 3503 1178 3333 
Q 1350 3163 1600 3163 
Q 1850 3163 2022 3333 
Q 2194 3503 2194 3750 
Q 2194 3997 2020 4172 
Q 1847 4347 1600 4347 
z
M 1600 4750 
Q 1800 4750 1984 4673 
Q 2169 4597 2303 4453 
Q 2447 4313 2519 4134 
Q 2591 3956 2591 3750 
Q 2591 3338 2302 3052 
Q 2013 2766 1594 2766 
Q 1172 2766 890 3047 
Q 609 3328 609 3750 
Q 609 4169 896 4459 
Q 1184 4750 1600 4750 
z
" transform="scale(0.015625)"/>
      </defs>
      <use xlink:href="#DejaVuSans-46"/>
      <use xlink:href="#DejaVuSans-61" x="48.394531"/>
      <use xlink:href="#DejaVuSans-73" x="109.673828"/>
      <use xlink:href="#DejaVuSans-65" x="161.773438"/>
      <use xlink:href="#DejaVuSans-20" x="223.296875"/>
      <use xlink:href="#DejaVuSans-5b" x="255.083984"/>
      <use xlink:href="#DejaVuSans-b0" x="294.097656"/>
      <use xlink:href="#DejaVuSans-5d" x="344.097656"/>
     </g>
    </g>
   </g>
   <g id="patch_3">
    <path d="M 90 256.32 
L 90 34.56 
" style="fill: none; stroke: #000000; stroke-width: 0.8; stroke-linejoin: miter; stroke-linecap: square"/>
   </g>
   <g id="patch_4">
    <path d="M 648 256.32 
L 648 34.56 
" style="fill: none; stroke: #000000; stroke-width: 0.8; stroke-linejoin: miter; stroke-linecap: square"/>
   </g>
   <g id="patch_5">
    <path d="M 90 256.32 
L 648 256.32 
" style="fill: none; stroke: #000000; stroke-width: 0.8; stroke-linejoin: miter; stroke-linecap: square"/>
   </g>
   <g id="patch_6">
    <path d="M 90 34.56 
L 648 34.56 
" style="fill: none; stroke: #000000; stroke-width: 0.8; stroke-linejoin: miter; stroke-linecap: square"/>
   </g>
   <g id="PathCollection_1">
    <defs>
     <path id="m4aa012b00f" d="M 0 4.55 
C 1.206674 4.55 2.364088 4.070583 3.217336 3.217336 
C 4.070583 2.364088 4.55 1.206674 4.55 0 
C 4.55 -1.206674 4.070583 -2.364088 3.217336 -3.217336 
C 2.364088 -4.070583 1.206674 -4.55 0 -4.55 
C -1.206674 -4.55 -2.364088 -4.070583 -3.217336 -3.217336 
C -4.070583 -2.364088 -4.55 -1.206674 -4.55 0 
C -4.55 1.206674 -4.070583 2.364088 -3.217336 3.217336 
C -2.364088 4.070583 -1.206674 4.55 0 4.55 
z
" style="stroke: #017517; stroke-width: 0.39"/>
    </defs>
    <g clip-path="url(#p87ae23c55e)">
     <use xlink:href="#m4aa012b00f" x="115.363636" y="170.637036" style="fill: #017517; stroke: #017517; stroke-width: 0.39"/>
     <use xlink:href="#m4aa012b00f" x="142.062201" y="167.711851" style="fill: #017517; stroke: #017517; stroke-width: 0.39"/>
     <use xlink:href="#m4aa012b00f" x="168.760766" y="172.162265" style="fill: #017517; stroke: #017517; stroke-width: 0.39"/>
     <use xlink:href="#m4aa012b00f" x="195.45933" y="173.336892" style="fill: #017517; stroke: #017517; stroke-width: 0.39"/>
     <use xlink:href="#m4aa012b00f" x="222.157895" y="174.253991" style="fill: #017517; stroke: #017517; stroke-width: 0.39"/>
     <use xlink:href="#m4aa012b00f" x="248.856459" y="177.320798" style="fill: #017517; stroke: #017517; stroke-width: 0.39"/>
     <use xlink:href="#m4aa012b00f" x="275.555024" y="181.736809" style="fill: #017517; stroke: #017517; stroke-width: 0.39"/>
     <use xlink:href="#m4aa012b00f" x="302.253589" y="187.195443" style="fill: #017517; stroke: #017517; stroke-width: 0.39"/>
     <use xlink:href="#m4aa012b00f" x="328.952153" y="194.085682" style="fill: #017517; stroke: #017517; stroke-width: 0.39"/>
     <use xlink:href="#m4aa012b00f" x="355.650718" y="201.035106" style="fill: #017517; stroke: #017517; stroke-width: 0.39"/>
     <use xlink:href="#m4aa012b00f" x="382.349282" y="206.814023" style="fill: #017517; stroke: #017517; stroke-width: 0.39"/>
     <use xlink:href="#m4aa012b00f" x="409.047847" y="216.998084" style="fill: #017517; stroke: #017517; stroke-width: 0.39"/>
     <use xlink:href="#m4aa012b00f" x="435.746411" y="230.161849" style="fill: #017517; stroke: #017517; stroke-width: 0.39"/>
     <use xlink:href="#m4aa012b00f" x="462.444976" y="233.342485" style="fill: #017517; stroke: #017517; stroke-width: 0.39"/>
     <use xlink:href="#m4aa012b00f" x="489.143541" y="242.982646" style="fill: #017517; stroke: #017517; stroke-width: 0.39"/>
     <use xlink:href="#m4aa012b00f" x="515.842105" y="127.160597" style="fill: #017517; stroke: #017517; stroke-width: 0.39"/>
     <use xlink:href="#m4aa012b00f" x="542.54067" y="231.777412" style="fill: #017517; stroke: #017517; stroke-width: 0.39"/>
     <use xlink:href="#m4aa012b00f" x="569.239234" y="246.24" style="fill: #017517; stroke: #017517; stroke-width: 0.39"/>
     <use xlink:href="#m4aa012b00f" x="595.937799" y="143.386471" style="fill: #017517; stroke: #017517; stroke-width: 0.39"/>
     <use xlink:href="#m4aa012b00f" x="622.636364" y="44.64" style="fill: #017517; stroke: #017517; stroke-width: 0.39"/>
    </g>
   </g>
  </g>
 </g>
 <defs>
  <clipPath id="p87ae23c55e">
   <rect x="90" y="34.56" width="558" height="221.76"/>
  </clipPath>
 </defs>
</svg>
