<?xml version="1.0" encoding="utf-8" standalone="no"?>
<!DOCTYPE svg PUBLIC "-//W3C//DTD SVG 1.1//EN"
  "http://www.w3.org/Graphics/SVG/1.1/DTD/svg11.dtd">
<svg xmlns:xlink="http://www.w3.org/1999/xlink" width="720pt" height="288pt" viewBox="0 0 720 288" xmlns="http://www.w3.org/2000/svg" version="1.1">
 <metadata>
  <rdf:RDF xmlns:dc="http://purl.org/dc/elements/1.1/" xmlns:cc="http://creativecommons.org/ns#" xmlns:rdf="http://www.w3.org/1999/02/22-rdf-syntax-ns#">
   <cc:Work>
    <dc:type rdf:resource="http://purl.org/dc/dcmitype/StillImage"/>
    <dc:date>2025-10-03T08:42:02.835076</dc:date>
    <dc:format>image/svg+xml</dc:format>
    <dc:creator>
     <cc:Agent>
      <dc:title>Matplotlib v3.5.1, https://matplotlib.org/</dc:title>
     </cc:Agent>
    </dc:creator>
   </cc:Work>
  </rdf:RDF>
 </metadata>
 <defs>
  <style type="text/css">*{stroke-linejoin: round; stroke-linecap: butt}</style>
 </defs>
 <g id="figure_1">
  <g id="patch_1">
   <path d="M 0 288 
L 720 288 
L 720 0 
L 0 0 
z
" style="fill: #ffffff"/>
  </g>
  <g id="axes_1">
   <g id="patch_2">
    <path d="M 90 256.32 
L 648 256.32 
L 648 34.56 
L 90 34.56 
z
" style="fill: #ffffff"/>
   </g>
   <g id="matplotlib.axis_1">
    <g id="xtick_1">
     <g id="line2d_1">
      <path d="M 115.363636 256.32 
L 115.363636 34.56 
" clip-path="url(#p74f135ef51)" style="fill: none; stroke: #b0b0b0; stroke-width: 1.3; stroke-linecap: square"/>
     </g>
     <g id="line2d_2">
      <defs>
       <path id="mbf6aa16f6b" d="M 0 0 
L 0 3.5 
" style="stroke: #000000; stroke-width: 1.3"/>
      </defs>
      <g>
       <use xlink:href="#mbf6aa16f6b" x="115.363636" y="256.32" style="stroke: #000000; stroke-width: 1.3"/>
      </g>
     </g>
     <g id="text_1">
      <!-- $\mathdefault{10^{2}}$ -->
      <g transform="translate(103.923636 278.797969)scale(0.13 -0.13)">
       <defs>
        <path id="DejaVuSans-31" d="M 794 531 
L 1825 531 
L 1825 4091 
L 703 3866 
L 703 4441 
L 1819 4666 
L 2450 4666 
L 2450 531 
L 3481 531 
L 3481 0 
L 794 0 
L 794 531 
z
" transform="scale(0.015625)"/>
        <path id="DejaVuSans-30" d="M 2034 4250 
Q 1547 4250 1301 3770 
Q 1056 3291 1056 2328 
Q 1056 1369 1301 889 
Q 1547 409 2034 409 
Q 2525 409 2770 889 
Q 3016 1369 3016 2328 
Q 3016 3291 2770 3770 
Q 2525 4250 2034 4250 
z
M 2034 4750 
Q 2819 4750 3233 4129 
Q 3647 3509 3647 2328 
Q 3647 1150 3233 529 
Q 2819 -91 2034 -91 
Q 1250 -91 836 529 
Q 422 1150 422 2328 
Q 422 3509 836 4129 
Q 1250 4750 2034 4750 
z
" transform="scale(0.015625)"/>
        <path id="DejaVuSans-32" d="M 1228 531 
L 3431 531 
L 3431 0 
L 469 0 
L 469 531 
Q 828 903 1448 1529 
Q 2069 2156 2228 2338 
Q 2531 2678 2651 2914 
Q 2772 3150 2772 3378 
Q 2772 3750 2511 3984 
Q 2250 4219 1831 4219 
Q 1534 4219 1204 4116 
Q 875 4013 500 3803 
L 500 4441 
Q 881 4594 1212 4672 
Q 1544 4750 1819 4750 
Q 2544 4750 2975 4387 
Q 3406 4025 3406 3419 
Q 3406 3131 3298 2873 
Q 3191 2616 2906 2266 
Q 2828 2175 2409 1742 
Q 1991 1309 1228 531 
z
" transform="scale(0.015625)"/>
       </defs>
       <use xlink:href="#DejaVuSans-31" transform="translate(0 0.765625)"/>
       <use xlink:href="#DejaVuSans-30" transform="translate(63.623047 0.765625)"/>
       <use xlink:href="#DejaVuSans-32" transform="translate(128.203125 39.046875)scale(0.7)"/>
      </g>
     </g>
    </g>
    <g id="xtick_2">
     <g id="line2d_3">
      <path d="M 284.454545 256.32 
L 284.454545 34.56 
" clip-path="url(#p74f135ef51)" style="fill: none; stroke: #b0b0b0; stroke-width: 1.3; stroke-linecap: square"/>
     </g>
     <g id="line2d_4">
      <g>
       <use xlink:href="#mbf6aa16f6b" x="284.454545" y="256.32" style="stroke: #000000; stroke-width: 1.3"/>
      </g>
     </g>
     <g id="text_2">
      <!-- $\mathdefault{10^{3}}$ -->
      <g transform="translate(273.014545 278.797969)scale(0.13 -0.13)">
       <defs>
        <path id="DejaVuSans-33" d="M 2597 2516 
Q 3050 2419 3304 2112 
Q 3559 1806 3559 1356 
Q 3559 666 3084 287 
Q 2609 -91 1734 -91 
Q 1441 -91 1130 -33 
Q 819 25 488 141 
L 488 750 
Q 750 597 1062 519 
Q 1375 441 1716 441 
Q 2309 441 2620 675 
Q 2931 909 2931 1356 
Q 2931 1769 2642 2001 
Q 2353 2234 1838 2234 
L 1294 2234 
L 1294 2753 
L 1863 2753 
Q 2328 2753 2575 2939 
Q 2822 3125 2822 3475 
Q 2822 3834 2567 4026 
Q 2313 4219 1838 4219 
Q 1578 4219 1281 4162 
Q 984 4106 628 3988 
L 628 4550 
Q 988 4650 1302 4700 
Q 1616 4750 1894 4750 
Q 2613 4750 3031 4423 
Q 3450 4097 3450 3541 
Q 3450 3153 3228 2886 
Q 3006 2619 2597 2516 
z
" transform="scale(0.015625)"/>
       </defs>
       <use xlink:href="#DejaVuSans-31" transform="translate(0 0.765625)"/>
       <use xlink:href="#DejaVuSans-30" transform="translate(63.623047 0.765625)"/>
       <use xlink:href="#DejaVuSans-33" transform="translate(128.203125 39.046875)scale(0.7)"/>
      </g>
     </g>
    </g>
    <g id="xtick_3">
     <g id="line2d_5">
      <path d="M 453.545455 256.32 
L 453.545455 34.56 
" clip-path="url(#p74f135ef51)" style="fill: none; stroke: #b0b0b0; stroke-width: 1.3; stroke-linecap: square"/>
     </g>
     <g id="line2d_6">
      <g>
       <use xlink:href="#mbf6aa16f6b" x="453.545455" y="256.32" style="stroke: #000000; stroke-width: 1.3"/>
      </g>
     </g>
     <g id="text_3">
      <!-- $\mathdefault{10^{4}}$ -->
      <g transform="translate(442.105455 278.797969)scale(0.13 -0.13)">
       <defs>
        <path id="DejaVuSans-34" d="M 2419 4116 
L 825 1625 
L 2419 1625 
L 2419 4116 
z
M 2253 4666 
L 3047 4666 
L 3047 1625 
L 3713 1625 
L 3713 1100 
L 3047 1100 
L 3047 0 
L 2419 0 
L 2419 1100 
L 313 1100 
L 313 1709 
L 2253 4666 
z
" transform="scale(0.015625)"/>
       </defs>
       <use xlink:href="#DejaVuSans-31" transform="translate(0 0.684375)"/>
       <use xlink:href="#DejaVuSans-30" transform="translate(63.623047 0.684375)"/>
       <use xlink:href="#DejaVuSans-34" transform="translate(128.203125 38.965625)scale(0.7)"/>
      </g>
     </g>
    </g>
    <g id="xtick_4">
     <g id="line2d_7">
      <path d="M 622.636364 256.32 
L 622.636364 34.56 
" clip-path="url(#p74f135ef51)" style="fill: none; stroke: #b0b0b0; stroke-width: 1.3; stroke-linecap: square"/>
     </g>
     <g id="line2d_8">
      <g>
       <use xlink:href="#mbf6aa16f6b" x="622.636364" y="256.32" style="stroke: #000000; stroke-width: 1.3"/>
      </g>
     </g>
     <g id="text_4">
      <!-- $\mathdefault{10^{5}}$ -->
      <g transform="translate(611.196364 278.797969)scale(0.13 -0.13)">
       <defs>
        <path id="DejaVuSans-35" d="M 691 4666 
L 3169 4666 
L 3169 4134 
L 1269 4134 
L 1269 2991 
Q 1406 3038 1543 3061 
Q 1681 3084 1819 3084 
Q 2600 3084 3056 2656 
Q 3513 2228 3513 1497 
Q 3513 744 3044 326 
Q 2575 -91 1722 -91 
Q 1428 -91 1123 -41 
Q 819 9 494 109 
L 494 744 
Q 775 591 1075 516 
Q 1375 441 1709 441 
Q 2250 441 2565 725 
Q 2881 1009 2881 1497 
Q 2881 1984 2565 2268 
Q 2250 2553 1709 2553 
Q 1456 2553 1204 2497 
Q 953 2441 691 2322 
L 691 4666 
z
" transform="scale(0.015625)"/>
       </defs>
       <use xlink:href="#DejaVuSans-31" transform="translate(0 0.684375)"/>
       <use xlink:href="#DejaVuSans-30" transform="translate(63.623047 0.684375)"/>
       <use xlink:href="#DejaVuSans-35" transform="translate(128.203125 38.965625)scale(0.7)"/>
      </g>
     </g>
    </g>
    <g id="xtick_5">
     <g id="line2d_9">
      <path d="M 98.977034 256.32 
L 98.977034 34.56 
" clip-path="url(#p74f135ef51)" style="fill: none; stroke: #b0b0b0; stroke-opacity: 0.3; stroke-width: 1.3; stroke-linecap: square"/>
     </g>
     <g id="line2d_10">
      <defs>
       <path id="m6e6dfd1983" d="M 0 0 
L 0 2 
" style="stroke: #000000; stroke-width: 0.65"/>
      </defs>
      <g>
       <use xlink:href="#m6e6dfd1983" x="98.977034" y="256.32" style="stroke: #000000; stroke-width: 0.65"/>
      </g>
     </g>
    </g>
    <g id="xtick_6">
     <g id="line2d_11">
      <path d="M 107.626461 256.32 
L 107.626461 34.56 
" clip-path="url(#p74f135ef51)" style="fill: none; stroke: #b0b0b0; stroke-opacity: 0.3; stroke-width: 1.3; stroke-linecap: square"/>
     </g>
     <g id="line2d_12">
      <g>
       <use xlink:href="#m6e6dfd1983" x="107.626461" y="256.32" style="stroke: #000000; stroke-width: 0.65"/>
      </g>
     </g>
    </g>
    <g id="xtick_7">
     <g id="line2d_13">
      <path d="M 166.265072 256.32 
L 166.265072 34.56 
" clip-path="url(#p74f135ef51)" style="fill: none; stroke: #b0b0b0; stroke-opacity: 0.3; stroke-width: 1.3; stroke-linecap: square"/>
     </g>
     <g id="line2d_14">
      <g>
       <use xlink:href="#m6e6dfd1983" x="166.265072" y="256.32" style="stroke: #000000; stroke-width: 0.65"/>
      </g>
     </g>
    </g>
    <g id="xtick_8">
     <g id="line2d_15">
      <path d="M 196.040503 256.32 
L 196.040503 34.56 
" clip-path="url(#p74f135ef51)" style="fill: none; stroke: #b0b0b0; stroke-opacity: 0.3; stroke-width: 1.3; stroke-linecap: square"/>
     </g>
     <g id="line2d_16">
      <g>
       <use xlink:href="#m6e6dfd1983" x="196.040503" y="256.32" style="stroke: #000000; stroke-width: 0.65"/>
      </g>
     </g>
    </g>
    <g id="xtick_9">
     <g id="line2d_17">
      <path d="M 217.166508 256.32 
L 217.166508 34.56 
" clip-path="url(#p74f135ef51)" style="fill: none; stroke: #b0b0b0; stroke-opacity: 0.3; stroke-width: 1.3; stroke-linecap: square"/>
     </g>
     <g id="line2d_18">
      <g>
       <use xlink:href="#m6e6dfd1983" x="217.166508" y="256.32" style="stroke: #000000; stroke-width: 0.65"/>
      </g>
     </g>
    </g>
    <g id="xtick_10">
     <g id="line2d_19">
      <path d="M 233.55311 256.32 
L 233.55311 34.56 
" clip-path="url(#p74f135ef51)" style="fill: none; stroke: #b0b0b0; stroke-opacity: 0.3; stroke-width: 1.3; stroke-linecap: square"/>
     </g>
     <g id="line2d_20">
      <g>
       <use xlink:href="#m6e6dfd1983" x="233.55311" y="256.32" style="stroke: #000000; stroke-width: 0.65"/>
      </g>
     </g>
    </g>
    <g id="xtick_11">
     <g id="line2d_21">
      <path d="M 246.941939 256.32 
L 246.941939 34.56 
" clip-path="url(#p74f135ef51)" style="fill: none; stroke: #b0b0b0; stroke-opacity: 0.3; stroke-width: 1.3; stroke-linecap: square"/>
     </g>
     <g id="line2d_22">
      <g>
       <use xlink:href="#m6e6dfd1983" x="246.941939" y="256.32" style="stroke: #000000; stroke-width: 0.65"/>
      </g>
     </g>
    </g>
    <g id="xtick_12">
     <g id="line2d_23">
      <path d="M 258.262032 256.32 
L 258.262032 34.56 
" clip-path="url(#p74f135ef51)" style="fill: none; stroke: #b0b0b0; stroke-opacity: 0.3; stroke-width: 1.3; stroke-linecap: square"/>
     </g>
     <g id="line2d_24">
      <g>
       <use xlink:href="#m6e6dfd1983" x="258.262032" y="256.32" style="stroke: #000000; stroke-width: 0.65"/>
      </g>
     </g>
    </g>
    <g id="xtick_13">
     <g id="line2d_25">
      <path d="M 268.067943 256.32 
L 268.067943 34.56 
" clip-path="url(#p74f135ef51)" style="fill: none; stroke: #b0b0b0; stroke-opacity: 0.3; stroke-width: 1.3; stroke-linecap: square"/>
     </g>
     <g id="line2d_26">
      <g>
       <use xlink:href="#m6e6dfd1983" x="268.067943" y="256.32" style="stroke: #000000; stroke-width: 0.65"/>
      </g>
     </g>
    </g>
    <g id="xtick_14">
     <g id="line2d_27">
      <path d="M 276.71737 256.32 
L 276.71737 34.56 
" clip-path="url(#p74f135ef51)" style="fill: none; stroke: #b0b0b0; stroke-opacity: 0.3; stroke-width: 1.3; stroke-linecap: square"/>
     </g>
     <g id="line2d_28">
      <g>
       <use xlink:href="#m6e6dfd1983" x="276.71737" y="256.32" style="stroke: #000000; stroke-width: 0.65"/>
      </g>
     </g>
    </g>
    <g id="xtick_15">
     <g id="line2d_29">
      <path d="M 335.355981 256.32 
L 335.355981 34.56 
" clip-path="url(#p74f135ef51)" style="fill: none; stroke: #b0b0b0; stroke-opacity: 0.3; stroke-width: 1.3; stroke-linecap: square"/>
     </g>
     <g id="line2d_30">
      <g>
       <use xlink:href="#m6e6dfd1983" x="335.355981" y="256.32" style="stroke: #000000; stroke-width: 0.65"/>
      </g>
     </g>
    </g>
    <g id="xtick_16">
     <g id="line2d_31">
      <path d="M 365.131412 256.32 
L 365.131412 34.56 
" clip-path="url(#p74f135ef51)" style="fill: none; stroke: #b0b0b0; stroke-opacity: 0.3; stroke-width: 1.3; stroke-linecap: square"/>
     </g>
     <g id="line2d_32">
      <g>
       <use xlink:href="#m6e6dfd1983" x="365.131412" y="256.32" style="stroke: #000000; stroke-width: 0.65"/>
      </g>
     </g>
    </g>
    <g id="xtick_17">
     <g id="line2d_33">
      <path d="M 386.257417 256.32 
L 386.257417 34.56 
" clip-path="url(#p74f135ef51)" style="fill: none; stroke: #b0b0b0; stroke-opacity: 0.3; stroke-width: 1.3; stroke-linecap: square"/>
     </g>
     <g id="line2d_34">
      <g>
       <use xlink:href="#m6e6dfd1983" x="386.257417" y="256.32" style="stroke: #000000; stroke-width: 0.65"/>
      </g>
     </g>
    </g>
    <g id="xtick_18">
     <g id="line2d_35">
      <path d="M 402.644019 256.32 
L 402.644019 34.56 
" clip-path="url(#p74f135ef51)" style="fill: none; stroke: #b0b0b0; stroke-opacity: 0.3; stroke-width: 1.3; stroke-linecap: square"/>
     </g>
     <g id="line2d_36">
      <g>
       <use xlink:href="#m6e6dfd1983" x="402.644019" y="256.32" style="stroke: #000000; stroke-width: 0.65"/>
      </g>
     </g>
    </g>
    <g id="xtick_19">
     <g id="line2d_37">
      <path d="M 416.032848 256.32 
L 416.032848 34.56 
" clip-path="url(#p74f135ef51)" style="fill: none; stroke: #b0b0b0; stroke-opacity: 0.3; stroke-width: 1.3; stroke-linecap: square"/>
     </g>
     <g id="line2d_38">
      <g>
       <use xlink:href="#m6e6dfd1983" x="416.032848" y="256.32" style="stroke: #000000; stroke-width: 0.65"/>
      </g>
     </g>
    </g>
    <g id="xtick_20">
     <g id="line2d_39">
      <path d="M 427.352941 256.32 
L 427.352941 34.56 
" clip-path="url(#p74f135ef51)" style="fill: none; stroke: #b0b0b0; stroke-opacity: 0.3; stroke-width: 1.3; stroke-linecap: square"/>
     </g>
     <g id="line2d_40">
      <g>
       <use xlink:href="#m6e6dfd1983" x="427.352941" y="256.32" style="stroke: #000000; stroke-width: 0.65"/>
      </g>
     </g>
    </g>
    <g id="xtick_21">
     <g id="line2d_41">
      <path d="M 437.158852 256.32 
L 437.158852 34.56 
" clip-path="url(#p74f135ef51)" style="fill: none; stroke: #b0b0b0; stroke-opacity: 0.3; stroke-width: 1.3; stroke-linecap: square"/>
     </g>
     <g id="line2d_42">
      <g>
       <use xlink:href="#m6e6dfd1983" x="437.158852" y="256.32" style="stroke: #000000; stroke-width: 0.65"/>
      </g>
     </g>
    </g>
    <g id="xtick_22">
     <g id="line2d_43">
      <path d="M 445.808279 256.32 
L 445.808279 34.56 
" clip-path="url(#p74f135ef51)" style="fill: none; stroke: #b0b0b0; stroke-opacity: 0.3; stroke-width: 1.3; stroke-linecap: square"/>
     </g>
     <g id="line2d_44">
      <g>
       <use xlink:href="#m6e6dfd1983" x="445.808279" y="256.32" style="stroke: #000000; stroke-width: 0.65"/>
      </g>
     </g>
    </g>
    <g id="xtick_23">
     <g id="line2d_45">
      <path d="M 504.44689 256.32 
L 504.44689 34.56 
" clip-path="url(#p74f135ef51)" style="fill: none; stroke: #b0b0b0; stroke-opacity: 0.3; stroke-width: 1.3; stroke-linecap: square"/>
     </g>
     <g id="line2d_46">
      <g>
       <use xlink:href="#m6e6dfd1983" x="504.44689" y="256.32" style="stroke: #000000; stroke-width: 0.65"/>
      </g>
     </g>
    </g>
    <g id="xtick_24">
     <g id="line2d_47">
      <path d="M 534.222321 256.32 
L 534.222321 34.56 
" clip-path="url(#p74f135ef51)" style="fill: none; stroke: #b0b0b0; stroke-opacity: 0.3; stroke-width: 1.3; stroke-linecap: square"/>
     </g>
     <g id="line2d_48">
      <g>
       <use xlink:href="#m6e6dfd1983" x="534.222321" y="256.32" style="stroke: #000000; stroke-width: 0.65"/>
      </g>
     </g>
    </g>
    <g id="xtick_25">
     <g id="line2d_49">
      <path d="M 555.348326 256.32 
L 555.348326 34.56 
" clip-path="url(#p74f135ef51)" style="fill: none; stroke: #b0b0b0; stroke-opacity: 0.3; stroke-width: 1.3; stroke-linecap: square"/>
     </g>
     <g id="line2d_50">
      <g>
       <use xlink:href="#m6e6dfd1983" x="555.348326" y="256.32" style="stroke: #000000; stroke-width: 0.65"/>
      </g>
     </g>
    </g>
    <g id="xtick_26">
     <g id="line2d_51">
      <path d="M 571.734928 256.32 
L 571.734928 34.56 
" clip-path="url(#p74f135ef51)" style="fill: none; stroke: #b0b0b0; stroke-opacity: 0.3; stroke-width: 1.3; stroke-linecap: square"/>
     </g>
     <g id="line2d_52">
      <g>
       <use xlink:href="#m6e6dfd1983" x="571.734928" y="256.32" style="stroke: #000000; stroke-width: 0.65"/>
      </g>
     </g>
    </g>
    <g id="xtick_27">
     <g id="line2d_53">
      <path d="M 585.123757 256.32 
L 585.123757 34.56 
" clip-path="url(#p74f135ef51)" style="fill: none; stroke: #b0b0b0; stroke-opacity: 0.3; stroke-width: 1.3; stroke-linecap: square"/>
     </g>
     <g id="line2d_54">
      <g>
       <use xlink:href="#m6e6dfd1983" x="585.123757" y="256.32" style="stroke: #000000; stroke-width: 0.65"/>
      </g>
     </g>
    </g>
    <g id="xtick_28">
     <g id="line2d_55">
      <path d="M 596.44385 256.32 
L 596.44385 34.56 
" clip-path="url(#p74f135ef51)" style="fill: none; stroke: #b0b0b0; stroke-opacity: 0.3; stroke-width: 1.3; stroke-linecap: square"/>
     </g>
     <g id="line2d_56">
      <g>
       <use xlink:href="#m6e6dfd1983" x="596.44385" y="256.32" style="stroke: #000000; stroke-width: 0.65"/>
      </g>
     </g>
    </g>
    <g id="xtick_29">
     <g id="line2d_57">
      <path d="M 606.249761 256.32 
L 606.249761 34.56 
" clip-path="url(#p74f135ef51)" style="fill: none; stroke: #b0b0b0; stroke-opacity: 0.3; stroke-width: 1.3; stroke-linecap: square"/>
     </g>
     <g id="line2d_58">
      <g>
       <use xlink:href="#m6e6dfd1983" x="606.249761" y="256.32" style="stroke: #000000; stroke-width: 0.65"/>
      </g>
     </g>
    </g>
    <g id="xtick_30">
     <g id="line2d_59">
      <path d="M 614.899188 256.32 
L 614.899188 34.56 
" clip-path="url(#p74f135ef51)" style="fill: none; stroke: #b0b0b0; stroke-opacity: 0.3; stroke-width: 1.3; stroke-linecap: square"/>
     </g>
     <g id="line2d_60">
      <g>
       <use xlink:href="#m6e6dfd1983" x="614.899188" y="256.32" style="stroke: #000000; stroke-width: 0.65"/>
      </g>
     </g>
    </g>
    <g id="text_5">
     <!-- Frecuencia [Hz] -->
     <g transform="translate(313.553984 296.367328)scale(0.143 -0.143)">
      <defs>
       <path id="DejaVuSans-46" d="M 628 4666 
L 3309 4666 
L 3309 4134 
L 1259 4134 
L 1259 2759 
L 3109 2759 
L 3109 2228 
L 1259 2228 
L 1259 0 
L 628 0 
L 628 4666 
z
" transform="scale(0.015625)"/>
       <path id="DejaVuSans-72" d="M 2631 2963 
Q 2534 3019 2420 3045 
Q 2306 3072 2169 3072 
Q 1681 3072 1420 2755 
Q 1159 2438 1159 1844 
L 1159 0 
L 581 0 
L 581 3500 
L 1159 3500 
L 1159 2956 
Q 1341 3275 1631 3429 
Q 1922 3584 2338 3584 
Q 2397 3584 2469 3576 
Q 2541 3569 2628 3553 
L 2631 2963 
z
" transform="scale(0.015625)"/>
       <path id="DejaVuSans-65" d="M 3597 1894 
L 3597 1613 
L 953 1613 
Q 991 1019 1311 708 
Q 1631 397 2203 397 
Q 2534 397 2845 478 
Q 3156 559 3463 722 
L 3463 178 
Q 3153 47 2828 -22 
Q 2503 -91 2169 -91 
Q 1331 -91 842 396 
Q 353 884 353 1716 
Q 353 2575 817 3079 
Q 1281 3584 2069 3584 
Q 2775 3584 3186 3129 
Q 3597 2675 3597 1894 
z
M 3022 2063 
Q 3016 2534 2758 2815 
Q 2500 3097 2075 3097 
Q 1594 3097 1305 2825 
Q 1016 2553 972 2059 
L 3022 2063 
z
" transform="scale(0.015625)"/>
       <path id="DejaVuSans-63" d="M 3122 3366 
L 3122 2828 
Q 2878 2963 2633 3030 
Q 2388 3097 2138 3097 
Q 1578 3097 1268 2742 
Q 959 2388 959 1747 
Q 959 1106 1268 751 
Q 1578 397 2138 397 
Q 2388 397 2633 464 
Q 2878 531 3122 666 
L 3122 134 
Q 2881 22 2623 -34 
Q 2366 -91 2075 -91 
Q 1284 -91 818 406 
Q 353 903 353 1747 
Q 353 2603 823 3093 
Q 1294 3584 2113 3584 
Q 2378 3584 2631 3529 
Q 2884 3475 3122 3366 
z
" transform="scale(0.015625)"/>
       <path id="DejaVuSans-75" d="M 544 1381 
L 544 3500 
L 1119 3500 
L 1119 1403 
Q 1119 906 1312 657 
Q 1506 409 1894 409 
Q 2359 409 2629 706 
Q 2900 1003 2900 1516 
L 2900 3500 
L 3475 3500 
L 3475 0 
L 2900 0 
L 2900 538 
Q 2691 219 2414 64 
Q 2138 -91 1772 -91 
Q 1169 -91 856 284 
Q 544 659 544 1381 
z
M 1991 3584 
L 1991 3584 
z
" transform="scale(0.015625)"/>
       <path id="DejaVuSans-6e" d="M 3513 2113 
L 3513 0 
L 2938 0 
L 2938 2094 
Q 2938 2591 2744 2837 
Q 2550 3084 2163 3084 
Q 1697 3084 1428 2787 
Q 1159 2491 1159 1978 
L 1159 0 
L 581 0 
L 581 3500 
L 1159 3500 
L 1159 2956 
Q 1366 3272 1645 3428 
Q 1925 3584 2291 3584 
Q 2894 3584 3203 3211 
Q 3513 2838 3513 2113 
z
" transform="scale(0.015625)"/>
       <path id="DejaVuSans-69" d="M 603 3500 
L 1178 3500 
L 1178 0 
L 603 0 
L 603 3500 
z
M 603 4863 
L 1178 4863 
L 1178 4134 
L 603 4134 
L 603 4863 
z
" transform="scale(0.015625)"/>
       <path id="DejaVuSans-61" d="M 2194 1759 
Q 1497 1759 1228 1600 
Q 959 1441 959 1056 
Q 959 750 1161 570 
Q 1363 391 1709 391 
Q 2188 391 2477 730 
Q 2766 1069 2766 1631 
L 2766 1759 
L 2194 1759 
z
M 3341 1997 
L 3341 0 
L 2766 0 
L 2766 531 
Q 2569 213 2275 61 
Q 1981 -91 1556 -91 
Q 1019 -91 701 211 
Q 384 513 384 1019 
Q 384 1609 779 1909 
Q 1175 2209 1959 2209 
L 2766 2209 
L 2766 2266 
Q 2766 2663 2505 2880 
Q 2244 3097 1772 3097 
Q 1472 3097 1187 3025 
Q 903 2953 641 2809 
L 641 3341 
Q 956 3463 1253 3523 
Q 1550 3584 1831 3584 
Q 2591 3584 2966 3190 
Q 3341 2797 3341 1997 
z
" transform="scale(0.015625)"/>
       <path id="DejaVuSans-20" transform="scale(0.015625)"/>
       <path id="DejaVuSans-5b" d="M 550 4863 
L 1875 4863 
L 1875 4416 
L 1125 4416 
L 1125 -397 
L 1875 -397 
L 1875 -844 
L 550 -844 
L 550 4863 
z
" transform="scale(0.015625)"/>
       <path id="DejaVuSans-48" d="M 628 4666 
L 1259 4666 
L 1259 2753 
L 3553 2753 
L 3553 4666 
L 4184 4666 
L 4184 0 
L 3553 0 
L 3553 2222 
L 1259 2222 
L 1259 0 
L 628 0 
L 628 4666 
z
" transform="scale(0.015625)"/>
       <path id="DejaVuSans-7a" d="M 353 3500 
L 3084 3500 
L 3084 2975 
L 922 459 
L 3084 459 
L 3084 0 
L 275 0 
L 275 525 
L 2438 3041 
L 353 3041 
L 353 3500 
z
" transform="scale(0.015625)"/>
       <path id="DejaVuSans-5d" d="M 1947 4863 
L 1947 -844 
L 622 -844 
L 622 -397 
L 1369 -397 
L 1369 4416 
L 622 4416 
L 622 4863 
L 1947 4863 
z
" transform="scale(0.015625)"/>
      </defs>
      <use xlink:href="#DejaVuSans-46"/>
      <use xlink:href="#DejaVuSans-72" x="50.269531"/>
      <use xlink:href="#DejaVuSans-65" x="89.132812"/>
      <use xlink:href="#DejaVuSans-63" x="150.65625"/>
      <use xlink:href="#DejaVuSans-75" x="205.636719"/>
      <use xlink:href="#DejaVuSans-65" x="269.015625"/>
      <use xlink:href="#DejaVuSans-6e" x="330.539062"/>
      <use xlink:href="#DejaVuSans-63" x="393.917969"/>
      <use xlink:href="#DejaVuSans-69" x="448.898438"/>
      <use xlink:href="#DejaVuSans-61" x="476.681641"/>
      <use xlink:href="#DejaVuSans-20" x="537.960938"/>
      <use xlink:href="#DejaVuSans-5b" x="569.748047"/>
      <use xlink:href="#DejaVuSans-48" x="608.761719"/>
      <use xlink:href="#DejaVuSans-7a" x="683.957031"/>
      <use xlink:href="#DejaVuSans-5d" x="736.447266"/>
     </g>
    </g>
   </g>
   <g id="matplotlib.axis_2">
    <g id="ytick_1">
     <g id="line2d_61">
      <path d="M 90 251.512169 
L 648 251.512169 
" clip-path="url(#p74f135ef51)" style="fill: none; stroke: #b0b0b0; stroke-width: 1.3; stroke-linecap: square"/>
     </g>
     <g id="line2d_62">
      <defs>
       <path id="mb305a32586" d="M 0 0 
L -3.5 0 
" style="stroke: #000000; stroke-width: 1.3"/>
      </defs>
      <g>
       <use xlink:href="#mb305a32586" x="90" y="251.512169" style="stroke: #000000; stroke-width: 1.3"/>
      </g>
     </g>
     <g id="text_6">
      <!-- 0.0 -->
      <g transform="translate(56.725938 256.451154)scale(0.13 -0.13)">
       <defs>
        <path id="DejaVuSans-2e" d="M 684 794 
L 1344 794 
L 1344 0 
L 684 0 
L 684 794 
z
" transform="scale(0.015625)"/>
       </defs>
       <use xlink:href="#DejaVuSans-30"/>
       <use xlink:href="#DejaVuSans-2e" x="63.623047"/>
       <use xlink:href="#DejaVuSans-30" x="95.410156"/>
      </g>
     </g>
    </g>
    <g id="ytick_2">
     <g id="line2d_63">
      <path d="M 90 207.187372 
L 648 207.187372 
" clip-path="url(#p74f135ef51)" style="fill: none; stroke: #b0b0b0; stroke-width: 1.3; stroke-linecap: square"/>
     </g>
     <g id="line2d_64">
      <g>
       <use xlink:href="#mb305a32586" x="90" y="207.187372" style="stroke: #000000; stroke-width: 1.3"/>
      </g>
     </g>
     <g id="text_7">
      <!-- 0.2 -->
      <g transform="translate(56.725938 212.126357)scale(0.13 -0.13)">
       <use xlink:href="#DejaVuSans-30"/>
       <use xlink:href="#DejaVuSans-2e" x="63.623047"/>
       <use xlink:href="#DejaVuSans-32" x="95.410156"/>
      </g>
     </g>
    </g>
    <g id="ytick_3">
     <g id="line2d_65">
      <path d="M 90 162.862575 
L 648 162.862575 
" clip-path="url(#p74f135ef51)" style="fill: none; stroke: #b0b0b0; stroke-width: 1.3; stroke-linecap: square"/>
     </g>
     <g id="line2d_66">
      <g>
       <use xlink:href="#mb305a32586" x="90" y="162.862575" style="stroke: #000000; stroke-width: 1.3"/>
      </g>
     </g>
     <g id="text_8">
      <!-- 0.4 -->
      <g transform="translate(56.725938 167.801559)scale(0.13 -0.13)">
       <use xlink:href="#DejaVuSans-30"/>
       <use xlink:href="#DejaVuSans-2e" x="63.623047"/>
       <use xlink:href="#DejaVuSans-34" x="95.410156"/>
      </g>
     </g>
    </g>
    <g id="ytick_4">
     <g id="line2d_67">
      <path d="M 90 118.537778 
L 648 118.537778 
" clip-path="url(#p74f135ef51)" style="fill: none; stroke: #b0b0b0; stroke-width: 1.3; stroke-linecap: square"/>
     </g>
     <g id="line2d_68">
      <g>
       <use xlink:href="#mb305a32586" x="90" y="118.537778" style="stroke: #000000; stroke-width: 1.3"/>
      </g>
     </g>
     <g id="text_9">
      <!-- 0.6 -->
      <g transform="translate(56.725938 123.476762)scale(0.13 -0.13)">
       <defs>
        <path id="DejaVuSans-36" d="M 2113 2584 
Q 1688 2584 1439 2293 
Q 1191 2003 1191 1497 
Q 1191 994 1439 701 
Q 1688 409 2113 409 
Q 2538 409 2786 701 
Q 3034 994 3034 1497 
Q 3034 2003 2786 2293 
Q 2538 2584 2113 2584 
z
M 3366 4563 
L 3366 3988 
Q 3128 4100 2886 4159 
Q 2644 4219 2406 4219 
Q 1781 4219 1451 3797 
Q 1122 3375 1075 2522 
Q 1259 2794 1537 2939 
Q 1816 3084 2150 3084 
Q 2853 3084 3261 2657 
Q 3669 2231 3669 1497 
Q 3669 778 3244 343 
Q 2819 -91 2113 -91 
Q 1303 -91 875 529 
Q 447 1150 447 2328 
Q 447 3434 972 4092 
Q 1497 4750 2381 4750 
Q 2619 4750 2861 4703 
Q 3103 4656 3366 4563 
z
" transform="scale(0.015625)"/>
       </defs>
       <use xlink:href="#DejaVuSans-30"/>
       <use xlink:href="#DejaVuSans-2e" x="63.623047"/>
       <use xlink:href="#DejaVuSans-36" x="95.410156"/>
      </g>
     </g>
    </g>
    <g id="ytick_5">
     <g id="line2d_69">
      <path d="M 90 74.212981 
L 648 74.212981 
" clip-path="url(#p74f135ef51)" style="fill: none; stroke: #b0b0b0; stroke-width: 1.3; stroke-linecap: square"/>
     </g>
     <g id="line2d_70">
      <g>
       <use xlink:href="#mb305a32586" x="90" y="74.212981" style="stroke: #000000; stroke-width: 1.3"/>
      </g>
     </g>
     <g id="text_10">
      <!-- 0.8 -->
      <g transform="translate(56.725938 79.151965)scale(0.13 -0.13)">
       <defs>
        <path id="DejaVuSans-38" d="M 2034 2216 
Q 1584 2216 1326 1975 
Q 1069 1734 1069 1313 
Q 1069 891 1326 650 
Q 1584 409 2034 409 
Q 2484 409 2743 651 
Q 3003 894 3003 1313 
Q 3003 1734 2745 1975 
Q 2488 2216 2034 2216 
z
M 1403 2484 
Q 997 2584 770 2862 
Q 544 3141 544 3541 
Q 544 4100 942 4425 
Q 1341 4750 2034 4750 
Q 2731 4750 3128 4425 
Q 3525 4100 3525 3541 
Q 3525 3141 3298 2862 
Q 3072 2584 2669 2484 
Q 3125 2378 3379 2068 
Q 3634 1759 3634 1313 
Q 3634 634 3220 271 
Q 2806 -91 2034 -91 
Q 1263 -91 848 271 
Q 434 634 434 1313 
Q 434 1759 690 2068 
Q 947 2378 1403 2484 
z
M 1172 3481 
Q 1172 3119 1398 2916 
Q 1625 2713 2034 2713 
Q 2441 2713 2670 2916 
Q 2900 3119 2900 3481 
Q 2900 3844 2670 4047 
Q 2441 4250 2034 4250 
Q 1625 4250 1398 4047 
Q 1172 3844 1172 3481 
z
" transform="scale(0.015625)"/>
       </defs>
       <use xlink:href="#DejaVuSans-30"/>
       <use xlink:href="#DejaVuSans-2e" x="63.623047"/>
       <use xlink:href="#DejaVuSans-38" x="95.410156"/>
      </g>
     </g>
    </g>
    <g id="ytick_6">
     <g id="line2d_71">
      <path d="M 90 240.43097 
L 648 240.43097 
" clip-path="url(#p74f135ef51)" style="fill: none; stroke: #b0b0b0; stroke-opacity: 0.3; stroke-width: 1.3; stroke-linecap: square"/>
     </g>
     <g id="line2d_72">
      <defs>
       <path id="m20db4f010b" d="M 0 0 
L -2 0 
" style="stroke: #000000; stroke-width: 0.65"/>
      </defs>
      <g>
       <use xlink:href="#m20db4f010b" x="90" y="240.43097" style="stroke: #000000; stroke-width: 0.65"/>
      </g>
     </g>
    </g>
    <g id="ytick_7">
     <g id="line2d_73">
      <path d="M 90 229.349771 
L 648 229.349771 
" clip-path="url(#p74f135ef51)" style="fill: none; stroke: #b0b0b0; stroke-opacity: 0.3; stroke-width: 1.3; stroke-linecap: square"/>
     </g>
     <g id="line2d_74">
      <g>
       <use xlink:href="#m20db4f010b" x="90" y="229.349771" style="stroke: #000000; stroke-width: 0.65"/>
      </g>
     </g>
    </g>
    <g id="ytick_8">
     <g id="line2d_75">
      <path d="M 90 218.268571 
L 648 218.268571 
" clip-path="url(#p74f135ef51)" style="fill: none; stroke: #b0b0b0; stroke-opacity: 0.3; stroke-width: 1.3; stroke-linecap: square"/>
     </g>
     <g id="line2d_76">
      <g>
       <use xlink:href="#m20db4f010b" x="90" y="218.268571" style="stroke: #000000; stroke-width: 0.65"/>
      </g>
     </g>
    </g>
    <g id="ytick_9">
     <g id="line2d_77">
      <path d="M 90 196.106173 
L 648 196.106173 
" clip-path="url(#p74f135ef51)" style="fill: none; stroke: #b0b0b0; stroke-opacity: 0.3; stroke-width: 1.3; stroke-linecap: square"/>
     </g>
     <g id="line2d_78">
      <g>
       <use xlink:href="#m20db4f010b" x="90" y="196.106173" style="stroke: #000000; stroke-width: 0.65"/>
      </g>
     </g>
    </g>
    <g id="ytick_10">
     <g id="line2d_79">
      <path d="M 90 185.024974 
L 648 185.024974 
" clip-path="url(#p74f135ef51)" style="fill: none; stroke: #b0b0b0; stroke-opacity: 0.3; stroke-width: 1.3; stroke-linecap: square"/>
     </g>
     <g id="line2d_80">
      <g>
       <use xlink:href="#m20db4f010b" x="90" y="185.024974" style="stroke: #000000; stroke-width: 0.65"/>
      </g>
     </g>
    </g>
    <g id="ytick_11">
     <g id="line2d_81">
      <path d="M 90 173.943774 
L 648 173.943774 
" clip-path="url(#p74f135ef51)" style="fill: none; stroke: #b0b0b0; stroke-opacity: 0.3; stroke-width: 1.3; stroke-linecap: square"/>
     </g>
     <g id="line2d_82">
      <g>
       <use xlink:href="#m20db4f010b" x="90" y="173.943774" style="stroke: #000000; stroke-width: 0.65"/>
      </g>
     </g>
    </g>
    <g id="ytick_12">
     <g id="line2d_83">
      <path d="M 90 151.781376 
L 648 151.781376 
" clip-path="url(#p74f135ef51)" style="fill: none; stroke: #b0b0b0; stroke-opacity: 0.3; stroke-width: 1.3; stroke-linecap: square"/>
     </g>
     <g id="line2d_84">
      <g>
       <use xlink:href="#m20db4f010b" x="90" y="151.781376" style="stroke: #000000; stroke-width: 0.65"/>
      </g>
     </g>
    </g>
    <g id="ytick_13">
     <g id="line2d_85">
      <path d="M 90 140.700177 
L 648 140.700177 
" clip-path="url(#p74f135ef51)" style="fill: none; stroke: #b0b0b0; stroke-opacity: 0.3; stroke-width: 1.3; stroke-linecap: square"/>
     </g>
     <g id="line2d_86">
      <g>
       <use xlink:href="#m20db4f010b" x="90" y="140.700177" style="stroke: #000000; stroke-width: 0.65"/>
      </g>
     </g>
    </g>
    <g id="ytick_14">
     <g id="line2d_87">
      <path d="M 90 129.618977 
L 648 129.618977 
" clip-path="url(#p74f135ef51)" style="fill: none; stroke: #b0b0b0; stroke-opacity: 0.3; stroke-width: 1.3; stroke-linecap: square"/>
     </g>
     <g id="line2d_88">
      <g>
       <use xlink:href="#m20db4f010b" x="90" y="129.618977" style="stroke: #000000; stroke-width: 0.65"/>
      </g>
     </g>
    </g>
    <g id="ytick_15">
     <g id="line2d_89">
      <path d="M 90 107.456579 
L 648 107.456579 
" clip-path="url(#p74f135ef51)" style="fill: none; stroke: #b0b0b0; stroke-opacity: 0.3; stroke-width: 1.3; stroke-linecap: square"/>
     </g>
     <g id="line2d_90">
      <g>
       <use xlink:href="#m20db4f010b" x="90" y="107.456579" style="stroke: #000000; stroke-width: 0.65"/>
      </g>
     </g>
    </g>
    <g id="ytick_16">
     <g id="line2d_91">
      <path d="M 90 96.375379 
L 648 96.375379 
" clip-path="url(#p74f135ef51)" style="fill: none; stroke: #b0b0b0; stroke-opacity: 0.3; stroke-width: 1.3; stroke-linecap: square"/>
     </g>
     <g id="line2d_92">
      <g>
       <use xlink:href="#m20db4f010b" x="90" y="96.375379" style="stroke: #000000; stroke-width: 0.65"/>
      </g>
     </g>
    </g>
    <g id="ytick_17">
     <g id="line2d_93">
      <path d="M 90 85.29418 
L 648 85.29418 
" clip-path="url(#p74f135ef51)" style="fill: none; stroke: #b0b0b0; stroke-opacity: 0.3; stroke-width: 1.3; stroke-linecap: square"/>
     </g>
     <g id="line2d_94">
      <g>
       <use xlink:href="#m20db4f010b" x="90" y="85.29418" style="stroke: #000000; stroke-width: 0.65"/>
      </g>
     </g>
    </g>
    <g id="ytick_18">
     <g id="line2d_95">
      <path d="M 90 63.131782 
L 648 63.131782 
" clip-path="url(#p74f135ef51)" style="fill: none; stroke: #b0b0b0; stroke-opacity: 0.3; stroke-width: 1.3; stroke-linecap: square"/>
     </g>
     <g id="line2d_96">
      <g>
       <use xlink:href="#m20db4f010b" x="90" y="63.131782" style="stroke: #000000; stroke-width: 0.65"/>
      </g>
     </g>
    </g>
    <g id="ytick_19">
     <g id="line2d_97">
      <path d="M 90 52.050582 
L 648 52.050582 
" clip-path="url(#p74f135ef51)" style="fill: none; stroke: #b0b0b0; stroke-opacity: 0.3; stroke-width: 1.3; stroke-linecap: square"/>
     </g>
     <g id="line2d_98">
      <g>
       <use xlink:href="#m20db4f010b" x="90" y="52.050582" style="stroke: #000000; stroke-width: 0.65"/>
      </g>
     </g>
    </g>
    <g id="ytick_20">
     <g id="line2d_99">
      <path d="M 90 40.969383 
L 648 40.969383 
" clip-path="url(#p74f135ef51)" style="fill: none; stroke: #b0b0b0; stroke-opacity: 0.3; stroke-width: 1.3; stroke-linecap: square"/>
     </g>
     <g id="line2d_100">
      <g>
       <use xlink:href="#m20db4f010b" x="90" y="40.969383" style="stroke: #000000; stroke-width: 0.65"/>
      </g>
     </g>
    </g>
    <g id="text_11">
     <!-- Tranferencia $[V_{out}/V_{in}]$ -->
     <g transform="translate(49.751984 223.947)rotate(-90)scale(0.143 -0.143)">
      <defs>
       <path id="DejaVuSans-54" d="M -19 4666 
L 3928 4666 
L 3928 4134 
L 2272 4134 
L 2272 0 
L 1638 0 
L 1638 4134 
L -19 4134 
L -19 4666 
z
" transform="scale(0.015625)"/>
       <path id="DejaVuSans-66" d="M 2375 4863 
L 2375 4384 
L 1825 4384 
Q 1516 4384 1395 4259 
Q 1275 4134 1275 3809 
L 1275 3500 
L 2222 3500 
L 2222 3053 
L 1275 3053 
L 1275 0 
L 697 0 
L 697 3053 
L 147 3053 
L 147 3500 
L 697 3500 
L 697 3744 
Q 697 4328 969 4595 
Q 1241 4863 1831 4863 
L 2375 4863 
z
" transform="scale(0.015625)"/>
       <path id="DejaVuSans-Oblique-56" d="M 1319 0 
L 500 4666 
L 1119 4666 
L 1797 653 
L 4063 4666 
L 4750 4666 
L 2053 0 
L 1319 0 
z
" transform="scale(0.015625)"/>
       <path id="DejaVuSans-Oblique-6f" d="M 1625 -91 
Q 1009 -91 651 289 
Q 294 669 294 1325 
Q 294 1706 417 2101 
Q 541 2497 738 2766 
Q 1047 3184 1428 3384 
Q 1809 3584 2291 3584 
Q 2888 3584 3255 3212 
Q 3622 2841 3622 2241 
Q 3622 1825 3500 1412 
Q 3378 1000 3181 728 
Q 2875 309 2494 109 
Q 2113 -91 1625 -91 
z
M 891 1344 
Q 891 869 1089 633 
Q 1288 397 1691 397 
Q 2269 397 2648 901 
Q 3028 1406 3028 2181 
Q 3028 2634 2825 2865 
Q 2622 3097 2228 3097 
Q 1903 3097 1650 2945 
Q 1397 2794 1197 2484 
Q 1050 2253 970 1956 
Q 891 1659 891 1344 
z
" transform="scale(0.015625)"/>
       <path id="DejaVuSans-Oblique-75" d="M 428 1388 
L 838 3500 
L 1416 3500 
L 1006 1409 
Q 975 1256 961 1147 
Q 947 1038 947 966 
Q 947 700 1109 554 
Q 1272 409 1569 409 
Q 2031 409 2368 721 
Q 2706 1034 2809 1563 
L 3194 3500 
L 3769 3500 
L 3091 0 
L 2516 0 
L 2631 550 
Q 2388 244 2052 76 
Q 1716 -91 1338 -91 
Q 878 -91 622 161 
Q 366 413 366 863 
Q 366 956 381 1097 
Q 397 1238 428 1388 
z
" transform="scale(0.015625)"/>
       <path id="DejaVuSans-Oblique-74" d="M 2706 3500 
L 2619 3053 
L 1472 3053 
L 1100 1153 
Q 1081 1047 1072 975 
Q 1063 903 1063 863 
Q 1063 663 1183 572 
Q 1303 481 1569 481 
L 2150 481 
L 2053 0 
L 1503 0 
Q 991 0 739 200 
Q 488 400 488 806 
Q 488 878 497 964 
Q 506 1050 525 1153 
L 897 3053 
L 409 3053 
L 500 3500 
L 978 3500 
L 1172 4494 
L 1747 4494 
L 1556 3500 
L 2706 3500 
z
" transform="scale(0.015625)"/>
       <path id="DejaVuSans-2f" d="M 1625 4666 
L 2156 4666 
L 531 -594 
L 0 -594 
L 1625 4666 
z
" transform="scale(0.015625)"/>
       <path id="DejaVuSans-Oblique-69" d="M 1172 4863 
L 1747 4863 
L 1606 4134 
L 1031 4134 
L 1172 4863 
z
M 909 3500 
L 1484 3500 
L 800 0 
L 225 0 
L 909 3500 
z
" transform="scale(0.015625)"/>
       <path id="DejaVuSans-Oblique-6e" d="M 3566 2113 
L 3156 0 
L 2578 0 
L 2988 2091 
Q 3016 2238 3031 2350 
Q 3047 2463 3047 2528 
Q 3047 2791 2881 2937 
Q 2716 3084 2419 3084 
Q 1956 3084 1622 2776 
Q 1288 2469 1184 1941 
L 800 0 
L 225 0 
L 903 3500 
L 1478 3500 
L 1363 2950 
Q 1603 3253 1940 3418 
Q 2278 3584 2650 3584 
Q 3113 3584 3367 3334 
Q 3622 3084 3622 2631 
Q 3622 2519 3608 2391 
Q 3594 2263 3566 2113 
z
" transform="scale(0.015625)"/>
      </defs>
      <use xlink:href="#DejaVuSans-54" transform="translate(0 0.015625)"/>
      <use xlink:href="#DejaVuSans-72" transform="translate(61.083984 0.015625)"/>
      <use xlink:href="#DejaVuSans-61" transform="translate(102.197266 0.015625)"/>
      <use xlink:href="#DejaVuSans-6e" transform="translate(163.476562 0.015625)"/>
      <use xlink:href="#DejaVuSans-66" transform="translate(226.855469 0.015625)"/>
      <use xlink:href="#DejaVuSans-65" transform="translate(262.060547 0.015625)"/>
      <use xlink:href="#DejaVuSans-72" transform="translate(323.583984 0.015625)"/>
      <use xlink:href="#DejaVuSans-65" transform="translate(364.697266 0.015625)"/>
      <use xlink:href="#DejaVuSans-6e" transform="translate(426.220703 0.015625)"/>
      <use xlink:href="#DejaVuSans-63" transform="translate(489.599609 0.015625)"/>
      <use xlink:href="#DejaVuSans-69" transform="translate(544.580078 0.015625)"/>
      <use xlink:href="#DejaVuSans-61" transform="translate(572.363281 0.015625)"/>
      <use xlink:href="#DejaVuSans-20" transform="translate(633.642578 0.015625)"/>
      <use xlink:href="#DejaVuSans-5b" transform="translate(665.429688 0.015625)"/>
      <use xlink:href="#DejaVuSans-Oblique-56" transform="translate(704.443359 0.015625)"/>
      <use xlink:href="#DejaVuSans-Oblique-6f" transform="translate(772.851562 -16.390625)scale(0.7)"/>
      <use xlink:href="#DejaVuSans-Oblique-75" transform="translate(815.678711 -16.390625)scale(0.7)"/>
      <use xlink:href="#DejaVuSans-Oblique-74" transform="translate(860.043945 -16.390625)scale(0.7)"/>
      <use xlink:href="#DejaVuSans-2f" transform="translate(890.224609 0.015625)"/>
      <use xlink:href="#DejaVuSans-Oblique-56" transform="translate(923.916016 0.015625)"/>
      <use xlink:href="#DejaVuSans-Oblique-69" transform="translate(992.324219 -16.390625)scale(0.7)"/>
      <use xlink:href="#DejaVuSans-Oblique-6e" transform="translate(1011.772461 -16.390625)scale(0.7)"/>
      <use xlink:href="#DejaVuSans-5d" transform="translate(1058.87207 0.015625)"/>
     </g>
    </g>
   </g>
   <g id="patch_3">
    <path d="M 90 256.32 
L 90 34.56 
" style="fill: none; stroke: #000000; stroke-width: 0.8; stroke-linejoin: miter; stroke-linecap: square"/>
   </g>
   <g id="patch_4">
    <path d="M 648 256.32 
L 648 34.56 
" style="fill: none; stroke: #000000; stroke-width: 0.8; stroke-linejoin: miter; stroke-linecap: square"/>
   </g>
   <g id="patch_5">
    <path d="M 90 256.32 
L 648 256.32 
" style="fill: none; stroke: #000000; stroke-width: 0.8; stroke-linejoin: miter; stroke-linecap: square"/>
   </g>
   <g id="patch_6">
    <path d="M 90 34.56 
L 648 34.56 
" style="fill: none; stroke: #000000; stroke-width: 0.8; stroke-linejoin: miter; stroke-linecap: square"/>
   </g>
   <g id="PathCollection_1">
    <defs>
     <path id="m6cd4cf46c7" d="M 0 4.55 
C 1.206674 4.55 2.364088 4.070583 3.217336 3.217336 
C 4.070583 2.364088 4.55 1.206674 4.55 0 
C 4.55 -1.206674 4.070583 -2.364088 3.217336 -3.217336 
C 2.364088 -4.070583 1.206674 -4.55 0 -4.55 
C -1.206674 -4.55 -2.364088 -4.070583 -3.217336 -3.217336 
C -4.070583 -2.364088 -4.55 -1.206674 -4.55 0 
C -4.55 1.206674 -4.070583 2.364088 -3.217336 3.217336 
C -2.364088 4.070583 -1.206674 4.55 0 4.55 
z
" style="stroke: #000000; stroke-opacity: 0.7; stroke-width: 0.39"/>
    </defs>
    <g clip-path="url(#p74f135ef51)">
     <use xlink:href="#m6cd4cf46c7" x="115.363636" y="45.183946" style="fill-opacity: 0.7; stroke: #000000; stroke-opacity: 0.7; stroke-width: 0.39"/>
     <use xlink:href="#m6cd4cf46c7" x="142.062201" y="44.64" style="fill-opacity: 0.7; stroke: #000000; stroke-opacity: 0.7; stroke-width: 0.39"/>
     <use xlink:href="#m6cd4cf46c7" x="168.760766" y="46.582032" style="fill-opacity: 0.7; stroke: #000000; stroke-opacity: 0.7; stroke-width: 0.39"/>
     <use xlink:href="#m6cd4cf46c7" x="195.45933" y="47.008107" style="fill-opacity: 0.7; stroke: #000000; stroke-opacity: 0.7; stroke-width: 0.39"/>
     <use xlink:href="#m6cd4cf46c7" x="222.157895" y="45.804947" style="fill-opacity: 0.7; stroke: #000000; stroke-opacity: 0.7; stroke-width: 0.39"/>
     <use xlink:href="#m6cd4cf46c7" x="248.856459" y="47.737427" style="fill-opacity: 0.7; stroke: #000000; stroke-opacity: 0.7; stroke-width: 0.39"/>
     <use xlink:href="#m6cd4cf46c7" x="275.555024" y="50.185796" style="fill-opacity: 0.7; stroke: #000000; stroke-opacity: 0.7; stroke-width: 0.39"/>
     <use xlink:href="#m6cd4cf46c7" x="302.253589" y="55.953202" style="fill-opacity: 0.7; stroke: #000000; stroke-opacity: 0.7; stroke-width: 0.39"/>
     <use xlink:href="#m6cd4cf46c7" x="328.952153" y="65.874883" style="fill-opacity: 0.7; stroke: #000000; stroke-opacity: 0.7; stroke-width: 0.39"/>
     <use xlink:href="#m6cd4cf46c7" x="355.650718" y="84.010635" style="fill-opacity: 0.7; stroke: #000000; stroke-opacity: 0.7; stroke-width: 0.39"/>
     <use xlink:href="#m6cd4cf46c7" x="382.349282" y="110.739785" style="fill-opacity: 0.7; stroke: #000000; stroke-opacity: 0.7; stroke-width: 0.39"/>
     <use xlink:href="#m6cd4cf46c7" x="409.047847" y="138.451721" style="fill-opacity: 0.7; stroke: #000000; stroke-opacity: 0.7; stroke-width: 0.39"/>
     <use xlink:href="#m6cd4cf46c7" x="435.746411" y="168.718048" style="fill-opacity: 0.7; stroke: #000000; stroke-opacity: 0.7; stroke-width: 0.39"/>
     <use xlink:href="#m6cd4cf46c7" x="462.444976" y="194.824166" style="fill-opacity: 0.7; stroke: #000000; stroke-opacity: 0.7; stroke-width: 0.39"/>
     <use xlink:href="#m6cd4cf46c7" x="489.143541" y="218.344026" style="fill-opacity: 0.7; stroke: #000000; stroke-opacity: 0.7; stroke-width: 0.39"/>
     <use xlink:href="#m6cd4cf46c7" x="515.842105" y="243.917428" style="fill-opacity: 0.7; stroke: #000000; stroke-opacity: 0.7; stroke-width: 0.39"/>
     <use xlink:href="#m6cd4cf46c7" x="542.54067" y="210.657216" style="fill-opacity: 0.7; stroke: #000000; stroke-opacity: 0.7; stroke-width: 0.39"/>
     <use xlink:href="#m6cd4cf46c7" x="569.239234" y="237.169033" style="fill-opacity: 0.7; stroke: #000000; stroke-opacity: 0.7; stroke-width: 0.39"/>
     <use xlink:href="#m6cd4cf46c7" x="595.937799" y="219.966146" style="fill-opacity: 0.7; stroke: #000000; stroke-opacity: 0.7; stroke-width: 0.39"/>
     <use xlink:href="#m6cd4cf46c7" x="622.636364" y="246.24" style="fill-opacity: 0.7; stroke: #000000; stroke-opacity: 0.7; stroke-width: 0.39"/>
    </g>
   </g>
  </g>
 </g>
 <defs>
  <clipPath id="p74f135ef51">
   <rect x="90" y="34.56" width="558" height="221.76"/>
  </clipPath>
 </defs>
</svg>
